<svg width="44" height="44" viewBox="0 0 44 44" fill="none" xmlns="http://www.w3.org/2000/svg">
<mask id="mask0_20_3215" style="mask-type:luminance" maskUnits="userSpaceOnUse" x="0" y="0" width="44" height="44">
<path d="M44 0H0V44H44V0Z" fill="white"/>
</mask>
<g mask="url(#mask0_20_3215)">
<path d="M27.8887 16.268C27.6898 16.268 27.499 16.189 27.3583 16.0483C27.2177 15.9077 27.1387 15.7169 27.1387 15.518V10.777C27.1387 10.5781 27.2177 10.3873 27.3583 10.2466C27.499 10.106 27.6898 10.027 27.8887 10.027C28.0876 10.027 28.2783 10.106 28.419 10.2466C28.5597 10.3873 28.6387 10.5781 28.6387 10.777V15.514C28.6387 15.7129 28.5597 15.9037 28.419 16.0443C28.2783 16.185 28.0876 16.264 27.8887 16.264" fill="#212121"/>
<path d="M18.0811 16.268C17.8821 16.268 17.6914 16.189 17.5507 16.0483C17.4101 15.9077 17.3311 15.7169 17.3311 15.518V10.777C17.3311 10.5781 17.4101 10.3873 17.5507 10.2466C17.6914 10.106 17.8821 10.027 18.0811 10.027C18.28 10.027 18.4707 10.106 18.6114 10.2466C18.752 10.3873 18.8311 10.5781 18.8311 10.777V15.514C18.8311 15.7129 18.752 15.9037 18.6114 16.0443C18.4707 16.185 18.28 16.264 18.0811 16.264" fill="#212121"/>
<path d="M31.5682 13.15H14.4032C13.764 13.1393 13.1466 13.3828 12.6869 13.827C12.2271 14.2712 11.9625 14.8798 11.9512 15.519V32.1C11.9622 32.7393 12.2267 33.348 12.6866 33.7923C13.1464 34.2365 13.7639 34.48 14.4032 34.469H31.5682C32.2075 34.48 32.8249 34.2365 33.2848 33.7923C33.7446 33.348 34.0091 32.7393 34.0202 32.1V15.519C34.0089 14.8798 33.7443 14.2712 33.2845 13.827C32.8247 13.3828 32.2074 13.1393 31.5682 13.15ZM18.0852 28.57C17.8257 28.57 17.572 28.4931 17.3563 28.3489C17.1405 28.2047 16.9723 27.9998 16.873 27.7601C16.7737 27.5203 16.7478 27.2565 16.7984 27.002C16.849 26.7475 16.974 26.5138 17.1574 26.3303C17.3409 26.1468 17.5747 26.0218 17.8292 25.9712C18.0837 25.9206 18.3475 25.9466 18.5873 26.0459C18.827 26.1452 19.0319 26.3133 19.1761 26.5291C19.3202 26.7448 19.3972 26.9985 19.3972 27.258C19.3972 27.606 19.2589 27.9397 19.0129 28.1857C18.7669 28.4318 18.4331 28.57 18.0852 28.57ZM28.7712 27.445C28.7712 27.7434 28.6527 28.0295 28.4417 28.2405C28.2307 28.4515 27.9445 28.57 27.6462 28.57H23.5212C23.2228 28.57 22.9367 28.4515 22.7257 28.2405C22.5147 28.0295 22.3962 27.7434 22.3962 27.445V27.07C22.3962 26.7716 22.5147 26.4855 22.7257 26.2745C22.9367 26.0635 23.2228 25.945 23.5212 25.945H27.6452C27.9435 25.945 28.2297 26.0635 28.4407 26.2745C28.6516 26.4855 28.7702 26.7716 28.7702 27.07L28.7712 27.445ZM31.9582 21.258H14.7102V17.137C14.7102 16.8413 14.7684 16.5484 14.8816 16.2752C14.9948 16.002 15.1607 15.7537 15.3698 15.5446C15.5789 15.3355 15.8271 15.1696 16.1004 15.0564C16.3736 14.9432 16.6664 14.885 16.9622 14.885H29.7052C30.001 14.8849 30.2939 14.943 30.5673 15.0561C30.8406 15.1692 31.089 15.3351 31.2982 15.5442C31.5074 15.7534 31.6734 16.0017 31.7867 16.275C31.8999 16.5483 31.9582 16.8412 31.9582 17.137V21.258Z" fill="#212121"/>
</g>
</svg>
