<svg width="22" height="22" viewBox="0 0 22 22" fill="none" xmlns="http://www.w3.org/2000/svg">
<path d="M6.88528 10.7996C8.20885 7.46227 9.55071 4.0703 10.8948 0.679628C10.952 0.675725 11.0069 0.67052 11.064 0.666617C12.4173 4.05729 13.7683 7.44926 15.1101 10.8126C12.3739 10.8087 9.67872 10.8048 6.88528 10.7996Z" fill="#007187"/>
<path d="M11 10.8125C11 7.93747 11 4.56248 10.8948 0.679567C10.952 0.675663 11.0069 0.670459 11.064 0.666556C12.4173 4.05722 13.7683 7.44919 15.1101 10.8125C12.3739 10.8086 13.7934 10.8177 11 10.8125Z" fill="#00516D"/>
<path d="M6.88528 11.8254C8.20885 15.1627 9.55071 18.5547 10.8948 21.9453C10.952 21.9492 11.0069 21.9544 11.064 21.9584C12.4173 18.5677 13.7683 15.1757 15.1101 11.8124C12.3739 11.8163 9.67872 11.8202 6.88528 11.8254Z" fill="#C9D5E7"/>
<path d="M6.88594 11.8254C8.20951 15.1627 9.55136 18.5547 10.8955 21.9454C10.9527 21.9493 11.0075 21.9545 11.0647 21.9584C11.0647 18.0626 11.0004 15.8126 11.0644 11.8125C8.32815 11.8164 9.67937 11.8202 6.88594 11.8254Z" fill="#DFEBFD"/>
</svg>
