<svg width="18" height="20" viewBox="0 0 18 20" fill="none" xmlns="http://www.w3.org/2000/svg">
<path d="M13.7101 16.7566H3.4612C2.95131 16.7563 2.44778 16.6434 1.98657 16.4259C1.52536 16.2085 1.11785 15.892 0.793131 15.4988C0.468413 15.1057 0.234503 14.6458 0.108104 14.1518C-0.0182956 13.6578 -0.0340655 13.142 0.0619207 12.6413L1.95204 2.80795C2.10427 2.01808 2.5267 1.30584 3.14682 0.793479C3.76693 0.281115 4.54605 0.000583411 5.35045 3.72393e-05H11.439C12.2233 -0.00360745 12.9853 0.260382 13.5993 0.748398C14.2133 1.23641 14.6424 1.91926 14.8158 2.68413L17.0851 12.5157C17.2024 13.0236 17.2035 13.5514 17.0884 14.0597C16.9734 14.5681 16.745 15.0439 16.4204 15.4517C16.0958 15.8596 15.6833 16.1889 15.2138 16.4151C14.7442 16.6413 14.2296 16.7586 13.7084 16.7583M5.35045 0.865874C4.74702 0.866262 4.16256 1.07673 3.69741 1.46114C3.23227 1.84554 2.91548 2.3799 2.80143 2.97245L0.912173 12.804C0.840154 13.1796 0.851945 13.5664 0.946703 13.9369C1.04146 14.3074 1.21685 14.6523 1.46034 14.9472C1.70384 15.2421 2.00943 15.4795 2.35531 15.6426C2.70118 15.8057 3.0788 15.8904 3.4612 15.8907H13.7101C14.1006 15.8905 14.4861 15.8023 14.8378 15.6325C15.1895 15.4628 15.4984 15.2159 15.7415 14.9103C15.9846 14.6047 16.1557 14.2482 16.242 13.8674C16.3284 13.4865 16.3277 13.0911 16.2401 12.7105L13.9707 2.87808C13.8409 2.30487 13.5194 1.79308 13.0595 1.42724C12.5995 1.06139 12.0285 0.863372 11.4407 0.865874H5.35045Z" fill="#212121"/>
<path d="M13.7101 16.7566H3.4612C2.95131 16.7563 2.44778 16.6434 1.98657 16.4259C1.52536 16.2085 1.11785 15.892 0.793131 15.4988C0.468413 15.1057 0.234503 14.6458 0.108104 14.1518C-0.0182956 13.6578 -0.0340655 13.142 0.0619207 12.6413L1.95204 2.80795C2.10428 2.01808 2.5267 1.30584 3.14682 0.793479C3.76693 0.281115 4.54605 0.000583411 5.35045 3.72393e-05H11.439C12.2233 -0.00360745 12.9853 0.260382 13.5993 0.748398C14.2133 1.23641 14.6424 1.91926 14.8158 2.68413L17.0851 12.5157C17.2024 13.0236 17.2035 13.5514 17.0884 14.0597C16.9734 14.5681 16.745 15.0439 16.4204 15.4517C16.0958 15.8596 15.6833 16.1889 15.2138 16.4151C14.7442 16.6413 14.2296 16.7586 13.7084 16.7583M5.35045 0.865874C4.74702 0.866262 4.16256 1.07673 3.69741 1.46114C3.23227 1.84554 2.91548 2.3799 2.80143 2.97245L0.912173 12.804C0.840154 13.1796 0.851945 13.5664 0.946703 13.9369C1.04146 14.3074 1.21685 14.6523 1.46034 14.9472C1.70384 15.2421 2.00943 15.4795 2.35531 15.6426C2.70118 15.8057 3.0788 15.8904 3.4612 15.8907H13.7101C14.1006 15.8905 14.4861 15.8023 14.8378 15.6325C15.1895 15.4628 15.4984 15.2159 15.7415 14.9103C15.9846 14.6047 16.1557 14.2482 16.242 13.8674C16.3284 13.4865 16.3277 13.0911 16.2401 12.7105L13.9707 2.87808C13.8409 2.30487 13.5194 1.79308 13.0595 1.42724C12.5995 1.06139 12.0285 0.863372 11.4407 0.865874H5.35045Z" stroke="#212121"/>
<path d="M13.7101 16.7566H3.4612C2.95131 16.7563 2.44778 16.6434 1.98657 16.4259C1.52536 16.2085 1.11785 15.892 0.793131 15.4988C0.468413 15.1057 0.234503 14.6458 0.108104 14.1518C-0.0182956 13.6578 -0.0340655 13.142 0.0619207 12.6413L1.95204 2.80795C2.10427 2.01808 2.5267 1.30584 3.14682 0.793479C3.76693 0.281115 4.54605 0.000583411 5.35045 3.72393e-05H11.439C12.2233 -0.00360745 12.9853 0.260382 13.5993 0.748398C14.2133 1.23641 14.6424 1.91926 14.8158 2.68413L17.0851 12.5157C17.2024 13.0236 17.2035 13.5514 17.0884 14.0597C16.9734 14.5681 16.745 15.0439 16.4204 15.4517C16.0958 15.8596 15.6833 16.1889 15.2138 16.4151C14.7442 16.6413 14.2296 16.7586 13.7084 16.7583L13.7101 16.7566ZM5.35045 0.865874C4.74702 0.866262 4.16256 1.07673 3.69741 1.46114C3.23227 1.84554 2.91548 2.3799 2.80143 2.97245L0.912173 12.804C0.840154 13.1796 0.851945 13.5664 0.946703 13.9369C1.04146 14.3074 1.21685 14.6523 1.46034 14.9472C1.70384 15.2421 2.00943 15.4795 2.35531 15.6426C2.70118 15.8057 3.0788 15.8904 3.4612 15.8907H13.7101C14.1006 15.8905 14.4861 15.8023 14.8378 15.6325C15.1895 15.4628 15.4984 15.2159 15.7415 14.9103C15.9846 14.6047 16.1557 14.2482 16.242 13.8674C16.3284 13.4865 16.3277 13.0911 16.2401 12.7105L13.9707 2.87808C13.8409 2.30487 13.5194 1.79308 13.0595 1.42724C12.5995 1.06139 12.0285 0.863372 11.4407 0.865874H5.35045Z" fill="#212121" stroke="#212121" stroke-miterlimit="10"/>
<path d="M13.9733 10.584H2.97198C2.85716 10.584 2.74705 10.5384 2.66586 10.4572C2.58467 10.3761 2.53906 10.2659 2.53906 10.1511C2.53906 10.0363 2.58467 9.92619 2.66586 9.845C2.74705 9.76381 2.85716 9.7182 2.97198 9.7182H13.9733C14.0881 9.7182 14.1982 9.76381 14.2794 9.845C14.3606 9.92619 14.4062 10.0363 14.4062 10.1511C14.4062 10.2659 14.3606 10.3761 14.2794 10.4572C14.1982 10.5384 14.0881 10.584 13.9733 10.584Z" fill="#212121" stroke="#212121"/>
<path d="M13.9733 10.584H2.97198C2.85716 10.584 2.74705 10.5384 2.66586 10.4572C2.58467 10.3761 2.53906 10.2659 2.53906 10.1511C2.53906 10.0363 2.58467 9.92619 2.66586 9.845C2.74705 9.76381 2.85716 9.7182 2.97198 9.7182H13.9733C14.0881 9.7182 14.1982 9.76381 14.2794 9.845C14.3606 9.92619 14.4062 10.0363 14.4062 10.1511C14.4062 10.2659 14.3606 10.3761 14.2794 10.4572C14.1982 10.5384 14.0881 10.584 13.9733 10.584Z" fill="#212121" stroke="#212121" stroke-miterlimit="10"/>
<path d="M5.90613 13.5123C5.90613 13.7178 5.8452 13.9186 5.73103 14.0895C5.61686 14.2604 5.45459 14.3935 5.26474 14.4722C5.07489 14.5508 4.86598 14.5714 4.66443 14.5313C4.46288 14.4912 4.27775 14.3923 4.13244 14.247C3.98713 14.1017 3.88818 13.9165 3.84809 13.715C3.808 13.5134 3.82858 13.3045 3.90721 13.1147C3.98585 12.9248 4.11903 12.7625 4.28989 12.6484C4.46075 12.5342 4.66163 12.4733 4.86713 12.4733C5.14269 12.4733 5.40697 12.5827 5.60182 12.7776C5.79667 12.9724 5.90613 13.2367 5.90613 13.5123Z" fill="#212121" stroke="#212121"/>
<path d="M13.453 13.5123C13.453 13.7178 13.3921 13.9186 13.2779 14.0895C13.1637 14.2604 13.0015 14.3935 12.8116 14.4722C12.6218 14.5508 12.4129 14.5714 12.2113 14.5313C12.0098 14.4912 11.8246 14.3923 11.6793 14.247C11.534 14.1017 11.4351 13.9165 11.395 13.715C11.3549 13.5134 11.3755 13.3045 11.4541 13.1147C11.5327 12.9248 11.6659 12.7625 11.8368 12.6484C12.0076 12.5342 12.2085 12.4733 12.414 12.4733C12.6896 12.4733 12.9538 12.5827 13.1487 12.7776C13.3435 12.9724 13.453 13.2367 13.453 13.5123Z" fill="#212121" stroke="#212121"/>
<path d="M0.955619 19.9957C0.868762 19.9957 0.783897 19.9696 0.712057 19.9208C0.640216 19.872 0.584722 19.8027 0.552786 19.7219C0.52085 19.6412 0.51395 19.5526 0.532981 19.4679C0.552013 19.3831 0.596096 19.3061 0.659502 19.2467L3.53235 16.5574C3.61628 16.479 3.72793 16.4371 3.84273 16.441C3.95753 16.4449 4.06607 16.4943 4.14449 16.5782C4.22291 16.6621 4.26478 16.7738 4.26089 16.8886C4.25699 17.0034 4.20765 17.1119 4.12372 17.1904L1.25087 19.8745C1.17081 19.9494 1.06529 19.9912 0.955619 19.9913" fill="#212121"/>
<path d="M0.955619 19.9957C0.868762 19.9957 0.783897 19.9696 0.712057 19.9208C0.640216 19.872 0.584722 19.8027 0.552786 19.7219C0.52085 19.6412 0.51395 19.5526 0.532981 19.4679C0.552013 19.3831 0.596096 19.3061 0.659502 19.2467L3.53235 16.5574C3.61628 16.479 3.72793 16.4371 3.84273 16.441C3.95753 16.4449 4.06607 16.4943 4.14449 16.5782C4.22291 16.6621 4.26478 16.7738 4.26089 16.8886C4.25699 17.0034 4.20765 17.1119 4.12372 17.1904L1.25087 19.8745C1.17081 19.9494 1.06529 19.9912 0.955619 19.9913" stroke="#212121"/>
<path d="M0.955619 19.9957C0.868762 19.9957 0.783897 19.9696 0.712057 19.9208C0.640216 19.872 0.584722 19.8027 0.552786 19.7219C0.52085 19.6412 0.51395 19.5526 0.532981 19.4679C0.552013 19.3831 0.596096 19.3061 0.659502 19.2467L3.53235 16.5574C3.61628 16.479 3.72793 16.4371 3.84273 16.441C3.95753 16.4449 4.06607 16.4943 4.14449 16.5782C4.22291 16.6621 4.26478 16.7738 4.26089 16.8886C4.25699 17.0034 4.20765 17.1119 4.12372 17.1904L1.25087 19.8745C1.17148 19.951 1.06588 19.9943 0.955619 19.9957Z" fill="#212121" stroke="#212121" stroke-miterlimit="10"/>
<path d="M16.7407 19.9957C16.6278 19.9957 16.5194 19.9515 16.4385 19.8727L13.6679 17.1886C13.5855 17.1083 13.5385 16.9985 13.5371 16.8834C13.5358 16.7684 13.5801 16.6575 13.6605 16.5752C13.7409 16.4929 13.8507 16.4458 13.9657 16.4445C14.0808 16.4431 14.1916 16.4875 14.274 16.5678L17.0446 19.2571C17.1063 19.3172 17.1486 19.3943 17.1662 19.4786C17.1838 19.5629 17.1759 19.6505 17.1434 19.7302C17.111 19.8099 17.0555 19.8782 16.9841 19.9263C16.9127 19.9743 16.8285 20 16.7425 20" fill="#212121"/>
<path d="M16.7407 19.9957C16.6278 19.9957 16.5194 19.9515 16.4385 19.8727L13.6679 17.1886C13.5855 17.1083 13.5385 16.9985 13.5371 16.8834C13.5358 16.7684 13.5801 16.6575 13.6605 16.5752C13.7409 16.4929 13.8507 16.4458 13.9657 16.4445C14.0808 16.4431 14.1916 16.4875 14.274 16.5678L17.0446 19.2571C17.1063 19.3172 17.1486 19.3943 17.1662 19.4786C17.1838 19.5629 17.1759 19.6505 17.1434 19.7302C17.111 19.8099 17.0555 19.8782 16.9841 19.9263C16.9127 19.9743 16.8285 20 16.7425 20" stroke="#212121"/>
<path d="M16.7407 19.9957C16.6278 19.9957 16.5194 19.9515 16.4385 19.8727L13.6679 17.1886C13.5855 17.1083 13.5385 16.9985 13.5371 16.8834C13.5358 16.7684 13.5801 16.6575 13.6605 16.5752C13.7409 16.4929 13.8507 16.4458 13.9657 16.4445C14.0808 16.4431 14.1916 16.4875 14.274 16.5678L17.0446 19.2571C17.1063 19.3172 17.1486 19.3943 17.1662 19.4786C17.1838 19.5629 17.1759 19.6505 17.1434 19.7302C17.111 19.8099 17.0555 19.8782 16.9841 19.9263C16.9127 19.9743 16.8285 20 16.7425 20L16.7407 19.9957Z" fill="#212121" stroke="#212121" stroke-miterlimit="10"/>
</svg>
