<svg width="22" height="18" viewBox="0 0 22 18" fill="none" xmlns="http://www.w3.org/2000/svg">
<path d="M17.8748 4.7173L10.4588 0.435044C10.0895 0.221827 9.68186 0.0834386 9.25908 0.0277792C8.8363 -0.0278802 8.4067 0.000279748 7.9948 0.110651C7.58291 0.221023 7.19678 0.411444 6.85848 0.671043C6.52018 0.930642 6.23632 1.25433 6.02312 1.62364L5.19423 3.0605C4.98104 3.42973 4.84266 3.83733 4.78702 4.26003C4.73137 4.68274 4.75954 5.11226 4.86991 5.52408C4.98029 5.9359 5.17071 6.32194 5.43029 6.66015C5.68988 6.99837 6.01355 7.28213 6.38282 7.49524L9.48919 9.28889L6.6047 14.139H0.977461V11.6143C0.977461 11.4846 0.92597 11.3603 0.834315 11.2687C0.742661 11.177 0.61835 11.1255 0.48873 11.1255C0.359111 11.1255 0.2348 11.177 0.143145 11.2687C0.0514907 11.3603 0 11.4846 0 11.6143V17.0411C0 17.1707 0.0514907 17.2951 0.143145 17.3867C0.2348 17.4784 0.359111 17.5299 0.48873 17.5299C0.61835 17.5299 0.742661 17.4784 0.834315 17.3867C0.92597 17.2951 0.977461 17.1707 0.977461 17.0411V15.1165H7.1599L10.3357 9.77762L13.7988 11.7775C14.5446 12.2079 15.4308 12.3246 16.2625 12.1019C17.0943 11.8792 17.8036 11.3354 18.2345 10.5899L19.0634 9.15302C19.493 8.40695 19.6091 7.52096 19.3863 6.68941C19.1634 5.85785 18.6199 5.14862 17.8748 4.7173ZM18.2179 8.66429L17.3881 10.1012C17.0864 10.6217 16.5906 11.0014 16.0093 11.157C15.4281 11.3126 14.8089 11.2313 14.2875 10.931L6.87155 6.64485C6.35173 6.34373 5.97242 5.84887 5.8167 5.26866C5.66097 4.68845 5.74152 4.07018 6.04071 3.54923L6.87057 2.11237C7.17174 1.59125 7.66741 1.21096 8.24873 1.055C8.83006 0.89904 9.44952 0.98016 9.97108 1.28055L17.3871 5.5628C17.9081 5.86434 18.2882 6.36018 18.4441 6.94159C18.6001 7.523 18.5181 8.14252 18.2179 8.66429Z" fill="#212121"/>
<path d="M17.8748 4.7173L10.4588 0.435044C10.0895 0.221827 9.68186 0.0834386 9.25908 0.0277792C8.8363 -0.0278802 8.4067 0.000279749 7.9948 0.110651C7.58291 0.221023 7.19678 0.411444 6.85848 0.671043C6.52018 0.930642 6.23632 1.25433 6.02312 1.62364L5.19423 3.0605C4.98104 3.42973 4.84266 3.83733 4.78702 4.26003C4.73137 4.68274 4.75954 5.11226 4.86991 5.52408C4.98029 5.9359 5.17071 6.32194 5.43029 6.66015C5.68988 6.99837 6.01355 7.28213 6.38282 7.49524L9.48919 9.28889L6.6047 14.139H0.977461V11.6143C0.977461 11.4846 0.92597 11.3603 0.834316 11.2687C0.742661 11.177 0.61835 11.1255 0.48873 11.1255C0.359111 11.1255 0.2348 11.177 0.143145 11.2687C0.0514907 11.3603 0 11.4846 0 11.6143V17.0411C0 17.1707 0.0514907 17.2951 0.143145 17.3867C0.2348 17.4784 0.359111 17.5299 0.48873 17.5299C0.61835 17.5299 0.742661 17.4784 0.834316 17.3867C0.92597 17.2951 0.977461 17.1707 0.977461 17.0411V15.1165H7.1599L10.3357 9.77762L13.7988 11.7775C14.5446 12.2079 15.4308 12.3246 16.2625 12.1019C17.0943 11.8792 17.8036 11.3354 18.2345 10.5899L19.0634 9.15302C19.493 8.40695 19.6091 7.52096 19.3863 6.68941C19.1634 5.85785 18.6199 5.14862 17.8748 4.7173ZM18.2179 8.66429L17.3881 10.1012C17.0864 10.6217 16.5906 11.0014 16.0093 11.157C15.4281 11.3126 14.8089 11.2313 14.2875 10.931L6.87155 6.64485C6.35173 6.34373 5.97242 5.84887 5.8167 5.26866C5.66097 4.68845 5.74152 4.07018 6.04071 3.54923L6.87057 2.11237C7.17174 1.59125 7.66741 1.21096 8.24873 1.055C8.83006 0.89904 9.44952 0.98016 9.97108 1.28055L17.3871 5.5628C17.9079 5.86451 18.2878 6.36042 18.4436 6.94181C18.5993 7.5232 18.5182 8.14263 18.2179 8.66429Z" stroke="#212121" stroke-miterlimit="10"/>
<path d="M21.7538 9.99462C21.6981 9.96261 21.6366 9.94189 21.5729 9.93366C21.5092 9.92542 21.4445 9.92983 21.3825 9.94663C21.3205 9.96342 21.2624 9.99227 21.2115 10.0315C21.1607 10.0708 21.1181 10.1197 21.0861 10.1754L19.7754 12.452C19.7433 12.5076 19.7225 12.569 19.7141 12.6327C19.7058 12.6964 19.71 12.7611 19.7267 12.8231C19.7433 12.8852 19.7721 12.9433 19.8112 12.9943C19.8503 13.0452 19.8991 13.088 19.9547 13.12C20.0104 13.1521 20.0718 13.173 20.1355 13.1813C20.1992 13.1897 20.2639 13.1854 20.3259 13.1687C20.388 13.1521 20.4461 13.1234 20.4971 13.0842C20.548 13.0451 20.5907 12.9963 20.6228 12.9407L21.9346 10.6642C21.9667 10.6084 21.9876 10.5469 21.9959 10.4831C22.0042 10.4193 21.9998 10.3544 21.983 10.2923C21.9662 10.2302 21.9373 10.172 21.898 10.1211C21.8586 10.0702 21.8096 10.0265 21.7538 9.99462Z" fill="#212121"/>
<path d="M21.7538 9.99462C21.6981 9.96261 21.6366 9.94189 21.5729 9.93366C21.5092 9.92542 21.4445 9.92983 21.3825 9.94663C21.3205 9.96342 21.2624 9.99227 21.2115 10.0315C21.1607 10.0708 21.1181 10.1197 21.0861 10.1754L19.7754 12.452C19.7433 12.5076 19.7225 12.569 19.7141 12.6327C19.7058 12.6964 19.71 12.7611 19.7267 12.8231C19.7433 12.8852 19.7721 12.9433 19.8112 12.9943C19.8503 13.0452 19.8991 13.088 19.9547 13.12C20.0104 13.1521 20.0718 13.173 20.1355 13.1813C20.1992 13.1897 20.2639 13.1854 20.3259 13.1687C20.388 13.1521 20.4461 13.1234 20.4971 13.0842C20.548 13.0451 20.5907 12.9963 20.6228 12.9407L21.9346 10.6642C21.9669 10.6084 21.9879 10.5468 21.9963 10.4829C22.0047 10.4189 22.0003 10.354 21.9835 10.2918C21.9667 10.2295 21.9378 10.1712 21.8983 10.1202C21.8589 10.0692 21.8098 10.0265 21.7538 9.99462Z" stroke="#212121" stroke-miterlimit="10"/>
</svg>
