<svg width="84" height="84" viewBox="0 0 84 84" fill="none" xmlns="http://www.w3.org/2000/svg">
<path fill-rule="evenodd" clip-rule="evenodd" d="M40.0537 42.8842C40.0537 42.3319 40.5014 41.8842 41.0537 41.8842H45.1129C45.6652 41.8842 46.1129 42.3319 46.1129 42.8842C46.1129 43.4364 45.6652 43.8842 45.1129 43.8842H41.0537C40.5014 43.8842 40.0537 43.4364 40.0537 42.8842Z" fill="#212121"/>
<mask id="mask0_20_2450" style="mask-type:luminance" maskUnits="userSpaceOnUse" x="0" y="0" width="84" height="84">
<path d="M54.8333 25H34V45H54.8333V25Z" fill="white"/>
</mask>
<g mask="url(#mask0_20_2450)">
<path fill-rule="evenodd" clip-rule="evenodd" d="M42.5695 26.1516C42.8297 26.0814 43.1021 26.0689 43.3677 26.1149C43.6333 26.161 43.8857 26.2644 44.1071 26.4181C44.3286 26.5717 44.5138 26.7719 44.6499 27.0045C44.786 27.2372 44.8696 27.4968 44.895 27.7651C44.9065 27.8867 44.9059 28.0087 44.8935 28.1295C45.7599 28.3749 46.448 28.8142 46.9834 29.3809C47.649 30.0854 48.0455 30.9508 48.2898 31.793C48.5343 32.6358 48.6366 33.4915 48.6899 34.2081C48.7149 34.5428 48.7295 34.854 48.742 35.1191C48.7429 35.1383 48.7438 35.1574 48.7447 35.1762C48.7576 35.4483 48.7681 35.6507 48.7839 35.7979C48.9049 36.4295 49.2619 36.9917 49.7829 37.3697L49.7924 37.3766L49.8018 37.3839C50.0438 37.5714 50.2455 37.8057 50.3949 38.073C50.5443 38.3402 50.6384 38.6348 50.6714 38.9392L50.6724 38.9483C50.7128 39.3692 50.6249 39.7554 50.397 40.0692C50.1781 40.3707 49.8836 40.5314 49.6417 40.6175C49.4003 40.7034 49.1693 40.7305 49.011 40.739C48.9291 40.7434 48.8595 40.7432 48.8081 40.7417C48.7859 40.741 48.7668 40.7401 48.7512 40.7392H37.4182C37.4027 40.7401 37.3838 40.741 37.3618 40.7417C37.3105 40.7433 37.2408 40.7436 37.1589 40.7394C37.0006 40.7311 36.7695 40.7042 36.5279 40.6187C36.2859 40.5329 35.991 40.3726 35.7717 40.0711C35.5433 39.7573 35.4554 39.371 35.4959 38.9499L35.4967 38.9414C35.5295 38.6368 35.6235 38.3419 35.773 38.0745C35.9225 37.8071 36.1245 37.5727 36.3668 37.3852L36.3758 37.3782L36.3851 37.3715C36.9059 36.9933 37.2628 36.4311 37.3834 35.7995C37.3992 35.6532 37.4098 35.4518 37.4227 35.1811C37.4236 35.1609 37.4246 35.1403 37.4256 35.1195C37.438 34.857 37.4526 34.5492 37.4772 34.2182C37.5301 33.5052 37.6312 32.6537 37.8725 31.814C38.1136 30.9751 38.5048 30.112 39.1616 29.4068C39.6869 28.8426 40.3621 28.4017 41.2124 28.1498C41.2043 28.0797 41.2001 28.0092 41.1999 27.9385L41.1999 27.9349C41.2006 27.6653 41.2601 27.3992 41.3743 27.155C41.4884 26.9109 41.6545 26.6946 41.861 26.5212C42.0674 26.3479 42.3092 26.2218 42.5695 26.1516ZM43.3399 28.2112V28.1785L43.383 28.0569C43.4001 28.0087 43.4065 27.9573 43.4017 27.9063C43.3969 27.8553 43.381 27.806 43.3551 27.7619C43.3293 27.7177 43.2941 27.6797 43.252 27.6505C43.21 27.6213 43.1621 27.6016 43.1116 27.5929C43.0612 27.5842 43.0094 27.5865 42.96 27.5999C42.9106 27.6132 42.8647 27.6372 42.8255 27.6701C42.7862 27.703 42.7547 27.7441 42.733 27.7904C42.7116 27.8363 42.7003 27.8862 42.6999 27.9367C42.7002 27.98 42.7081 28.0228 42.7233 28.0633L42.7295 28.08L42.735 28.097C42.8106 28.333 42.8328 28.5829 42.8 28.8286L42.7255 29.3858L42.1697 29.4706C41.2934 29.6044 40.6926 29.9638 40.2593 30.429C39.815 30.9061 39.5148 31.5303 39.3142 32.2284C39.1138 32.9256 39.0227 33.6609 38.9731 34.3292C38.9501 34.6393 38.9364 34.9284 38.9238 35.193C38.9229 35.2129 38.9219 35.2327 38.921 35.2524C38.9081 35.5228 38.8951 35.7872 38.8707 35.9968L38.8679 36.0205L38.8637 36.0439C38.6793 37.0606 38.1114 37.9674 37.2776 38.5771C37.1982 38.64 37.1318 38.718 37.0823 38.8066C37.032 38.8964 37.0002 38.9954 36.9886 39.0977C36.9845 39.1431 36.9863 39.1715 36.9888 39.1875C36.9969 39.1919 37.0097 39.198 37.0288 39.2048C37.0877 39.2256 37.1636 39.2376 37.2373 39.2414C37.2713 39.2432 37.2988 39.2429 37.3156 39.2424C37.3223 39.2422 37.3269 39.242 37.3293 39.2418L37.3578 39.2392H48.8107L48.8387 39.2418C48.8411 39.2419 48.8458 39.2421 48.8524 39.2423C48.8691 39.2428 48.8966 39.243 48.9306 39.2412C49.0041 39.2373 49.0799 39.2252 49.1388 39.2043C49.1583 39.1974 49.1712 39.1912 49.1792 39.1867C49.1818 39.1707 49.1837 39.1422 49.1796 39.0965C49.1679 38.9941 49.136 38.895 49.0857 38.805C49.0361 38.7164 48.9698 38.6384 48.8903 38.5753C48.0565 37.9657 47.4884 37.0591 47.3037 36.0425L47.2993 36.0187L47.2966 35.9948C47.2722 35.7844 47.2592 35.5187 47.2464 35.247C47.2455 35.229 47.2447 35.2108 47.2438 35.1926C47.2312 34.9253 47.2174 34.6331 47.1941 34.3195C47.1441 33.6481 47.052 32.9099 46.8492 32.2109C46.6462 31.5111 46.3425 30.8867 45.8931 30.411C45.4632 29.9561 44.8691 29.6033 44.0067 29.4692H43.3893L43.3066 28.813C43.2812 28.6117 43.2927 28.4078 43.3399 28.2112Z" fill="#212121"/>
<path d="M46.7194 25.88C47.9936 26.576 49.0548 27.605 49.7897 28.8571C50.5246 30.1092 50.9055 31.5374 50.8919 32.9892C50.8872 33.0931 50.8426 33.1912 50.7674 33.263C50.6922 33.3349 50.5922 33.375 50.4882 33.375C50.3842 33.375 50.2842 33.3349 50.209 33.263C50.1338 33.1912 50.0892 33.0931 50.0844 32.9892C50.0857 31.6803 49.7403 30.3945 49.0834 29.2624C48.4265 28.1304 47.4814 27.1925 46.3444 26.5442C46.2578 26.4935 46.1945 26.4109 46.1682 26.314C46.1419 26.2172 46.1548 26.1138 46.204 26.0264C46.2532 25.9389 46.3348 25.8743 46.4312 25.8464C46.5277 25.8186 46.6312 25.8297 46.7194 25.8775" fill="#212121"/>
<path d="M39.2803 25.88C38.0061 26.576 36.9449 27.605 36.21 28.8571C35.4752 30.1092 35.0942 31.5374 35.1078 32.9892C35.1125 33.0931 35.1571 33.1912 35.2323 33.263C35.3075 33.3349 35.4075 33.375 35.5115 33.375C35.6155 33.375 35.7156 33.3349 35.7908 33.263C35.866 33.1912 35.9106 33.0931 35.9153 32.9892C35.914 31.6803 36.2594 30.3945 36.9163 29.2624C37.5732 28.1304 38.5183 27.1925 39.6553 26.5442C39.7419 26.4935 39.8052 26.4109 39.8315 26.314C39.8578 26.2172 39.8449 26.1138 39.7957 26.0264C39.7465 25.9389 39.6649 25.8743 39.5685 25.8464C39.472 25.8186 39.3685 25.8297 39.2803 25.8775" fill="#212121"/>
<path fill-rule="evenodd" clip-rule="evenodd" d="M39.0423 25.4378C39.2459 25.3276 39.4847 25.3018 39.7072 25.366C39.9297 25.4303 40.118 25.5794 40.2315 25.7812C40.345 25.9831 40.3747 26.2214 40.3141 26.4449C40.2535 26.6684 40.1074 26.8591 39.9075 26.9759L39.903 26.9785L39.9029 26.9785C38.8426 27.5831 37.9614 28.4577 37.3488 29.5134C36.7362 30.5691 36.4141 31.7681 36.4153 32.9887L36.4153 33.0003L36.4148 33.0119C36.4042 33.2443 36.3044 33.4638 36.1362 33.6245C35.968 33.7853 35.7442 33.875 35.5115 33.875C35.2788 33.875 35.0551 33.7853 34.8869 33.6245C34.7186 33.4638 34.6189 33.2443 34.6083 33.0119L34.6079 33.0029L34.6078 32.9939C34.5933 31.4515 34.9981 29.9342 35.7788 28.604C36.5596 27.2738 37.6869 26.1806 39.0406 25.4412L39.4062 26.1106C39.4063 26.1106 39.4063 26.1105 39.4064 26.1105L39.0423 25.4378ZM46.5935 26.1106L46.9591 25.4412C48.3128 26.1806 49.4402 27.2738 50.2209 28.604C51.0016 29.9342 51.4064 31.4515 51.3919 32.9939L51.3918 33.0029L51.3914 33.0119C51.3809 33.2443 51.2811 33.4638 51.1129 33.6245C50.9446 33.7853 50.7209 33.875 50.4882 33.875C50.2555 33.875 50.0318 33.7853 49.8635 33.6245C49.6953 33.4638 49.5955 33.2443 49.585 33.0119L49.5844 33.0003L49.5844 32.9887C49.5856 31.7681 49.2635 30.569 48.6509 29.5134C48.0383 28.4577 47.1571 27.5831 46.0968 26.9785L46.0922 26.9759L46.0922 26.9759C45.8923 26.8591 45.7463 26.6684 45.6856 26.4449C45.625 26.2214 45.6547 25.9831 45.7682 25.7812C45.8817 25.5794 46.07 25.4303 46.2925 25.366C46.515 25.3018 46.7538 25.3276 46.9574 25.4378L46.5933 26.1105C46.5934 26.1105 46.5934 26.1106 46.5935 26.1106Z" fill="#212121"/>
</g>
</svg>
