<svg width="24" height="24" viewBox="0 0 24 24" fill="none" xmlns="http://www.w3.org/2000/svg">
<mask id="path-1-outside-1_899_91" maskUnits="userSpaceOnUse" x="2" y="3" width="20" height="18" fill="black">
<rect fill="white" x="2" y="3" width="20" height="18"/>
<path d="M11.9872 19.9992C9.83754 19.9992 7.68705 20.0016 5.53736 19.9976C4.84977 19.9961 4.32252 19.6884 3.95719 19.1234C3.75778 18.8142 3.70832 18.4579 3.70752 18.0977C3.70593 16.5186 3.70673 14.9404 3.70673 13.3614C3.70673 13.323 3.70673 13.2845 3.70673 13.2468C3.70832 13.1519 3.66605 13.1056 3.56554 13.0859C3.44509 13.0616 3.32225 13.0271 3.21457 12.9706C3.03191 12.8725 3 12.6936 3 12.506C3 11.7895 3 11.0729 3 10.3564C3 9.73173 3 9.10703 3 8.48234C3 8.22021 3.02313 7.95888 3.12842 7.71716C3.27679 7.37734 3.50173 7.09246 3.8176 6.88371C4.15262 6.66318 4.52114 6.54938 4.92555 6.54938C6.12523 6.54938 7.32491 6.54782 8.52459 6.54703C8.58681 6.54703 8.64983 6.54311 8.71125 6.54703C8.80457 6.55409 8.83967 6.51171 8.85562 6.42382C8.90268 6.16876 8.93698 5.90821 9.01595 5.66178C9.20181 5.08103 9.54001 4.60466 10.1056 4.32213C10.4071 4.17145 10.7277 4.06394 11.0715 4.04903C11.5302 4.02941 11.9888 3.99095 12.4467 4.00194C12.9404 4.01371 13.4318 4.08513 13.8801 4.3135C14.2534 4.50421 14.5445 4.78046 14.7527 5.14617C14.9801 5.54406 15.0877 5.97413 15.142 6.41989C15.1563 6.53918 15.2194 6.54782 15.3151 6.54782C16.5028 6.54625 17.6913 6.54625 18.879 6.54782C19.1239 6.54782 19.3664 6.55488 19.6073 6.62394C20.0859 6.76049 20.448 7.0391 20.7144 7.44719C20.925 7.76974 21.0008 8.12761 21 8.50588C20.9992 9.82826 21 11.1499 21 12.4722C21 12.8387 20.8548 13.0083 20.4863 13.0797C20.2957 13.1166 20.2925 13.1205 20.2925 13.3088C20.2925 14.9263 20.2933 16.543 20.2925 18.1604C20.2925 18.8487 20.0037 19.3879 19.4047 19.7504C19.1327 19.9152 18.8304 20 18.5081 20C16.3345 20 14.1609 20 11.988 20L11.9872 19.9992ZM12.0279 7.51704C9.72986 7.51704 7.4326 7.51704 5.13454 7.51704C4.93273 7.51704 4.73092 7.5139 4.54188 7.60886C4.33768 7.71167 4.1606 7.84587 4.0912 8.06326C4.03217 8.25004 3.99229 8.44859 3.98272 8.64322C3.96597 9.0105 3.97793 9.37857 3.97793 9.74664C3.97793 10.4977 3.97793 11.2487 3.97793 11.9998C3.97793 12.1819 3.97793 12.1866 4.159 12.236C4.26349 12.2643 4.37277 12.2745 4.47966 12.2949C4.84499 12.3663 5.21032 12.4432 5.57644 12.5099C5.80537 12.5515 6.03669 12.579 6.26721 12.6119C6.75139 12.6818 7.23478 12.7618 7.72135 12.8191C8.1457 12.8693 8.57325 12.8929 9 12.929C9.06222 12.9345 9.12364 12.9439 9.18585 12.9486C9.45387 12.9667 9.72188 12.9831 9.98989 12.9996C10.0721 13.0043 10.1119 12.9674 10.1111 12.8843C10.1095 12.7461 10.1064 12.608 10.1127 12.4707C10.1255 12.1936 10.167 11.9252 10.3552 11.6976C10.624 11.372 10.9846 11.2668 11.389 11.2637C11.7942 11.2605 12.1994 11.2574 12.6038 11.2652C12.8288 11.2699 13.0561 11.2817 13.2627 11.3892C13.565 11.547 13.7939 11.7722 13.8442 12.1159C13.8801 12.3647 13.8777 12.619 13.8865 12.8709C13.8897 12.9698 13.9279 13.009 14.0292 13.0012C14.1609 12.991 14.2941 12.9941 14.4257 12.9824C14.9912 12.9345 15.5568 12.8858 16.1223 12.8325C16.4206 12.8042 16.7182 12.772 17.0141 12.7297C17.4368 12.6684 17.8588 12.5962 18.28 12.5264C18.6517 12.4644 19.0234 12.4016 19.3943 12.3349C19.5538 12.3059 19.711 12.2611 19.8705 12.2305C19.9989 12.2062 20.0324 12.1363 20.0316 12.0116C20.0268 10.8854 20.0292 9.75842 20.0284 8.63223C20.0284 8.55925 20.0237 8.48705 20.0189 8.41406C19.9997 8.12525 19.8936 7.87883 19.6504 7.70303C19.4366 7.54843 19.1909 7.51625 18.9333 7.51625C16.632 7.51782 14.3292 7.51704 12.0279 7.51704ZM11.9904 19.0331C14.117 19.0331 16.2435 19.0331 18.3701 19.0331C18.4243 19.0331 18.4818 19.0418 18.5328 19.0284C18.6557 18.997 18.7849 18.9727 18.895 18.9146C19.21 18.7483 19.3289 18.4485 19.3313 18.1275C19.3433 16.5759 19.3369 15.0236 19.3361 13.4721C19.3361 13.3261 19.3201 13.3143 19.1694 13.3394C18.8519 13.3928 18.5352 13.4501 18.217 13.5011C17.7455 13.5772 17.2741 13.6573 16.8003 13.7208C16.3576 13.7797 15.9117 13.8237 15.4666 13.8645C14.9976 13.9068 14.5278 13.9398 14.0572 13.9688C13.9447 13.9759 13.9096 14.0151 13.912 14.1211C13.916 14.3432 13.9184 14.5661 13.9064 14.7874C13.896 14.9844 13.8298 15.1696 13.711 15.3305C13.4621 15.6671 13.1167 15.8194 12.6979 15.8194C12.2385 15.8194 11.7782 15.828 11.3196 15.8155C11.1521 15.8108 10.971 15.7888 10.8211 15.7213C10.3911 15.5274 10.1454 15.1963 10.1454 14.7144C10.1454 14.5151 10.1407 14.3157 10.1454 14.1164C10.1478 14.0136 10.104 13.9759 10.0027 13.9696C9.63733 13.9477 9.272 13.9249 8.90827 13.8911C8.47514 13.8503 8.04201 13.7993 7.60968 13.7507C7.32013 13.7185 7.03058 13.684 6.74103 13.6479C6.48657 13.6157 6.23132 13.5851 5.97846 13.5427C5.60755 13.4799 5.23823 13.4061 4.86812 13.3402C4.72933 13.3159 4.70061 13.341 4.70061 13.4815C4.70061 15.0636 4.69742 16.6466 4.7046 18.2287C4.7046 18.3574 4.74448 18.4979 4.8067 18.6117C4.97341 18.9162 5.25259 19.0363 5.60037 19.0355C7.73092 19.0331 9.86147 19.0339 11.9912 19.0339L11.9904 19.0331ZM11.9992 6.54703C12.6652 6.54703 13.3313 6.54703 13.9965 6.54703C14.1561 6.54703 14.1816 6.53055 14.1521 6.37438C14.1162 6.17975 14.0651 5.98669 14.0013 5.79912C13.9088 5.52837 13.7229 5.3306 13.4669 5.1909C13.171 5.03002 12.8431 5.00412 12.5201 4.97822C12.0072 4.93663 11.4927 4.94997 10.9838 5.03865C10.7437 5.08025 10.5211 5.16971 10.3313 5.3251C9.99947 5.59743 9.91172 5.98355 9.84552 6.37359C9.8184 6.53212 9.84153 6.54625 10.0019 6.54625C10.6679 6.54625 11.334 6.54703 11.9992 6.54703ZM12.9125 13.5498C12.9125 13.1895 12.9133 12.8301 12.9125 12.4699C12.9125 12.3129 12.8367 12.2313 12.678 12.2305C12.2265 12.2266 11.7751 12.2274 11.3236 12.2305C11.1744 12.2313 11.0915 12.3145 11.0907 12.4613C11.0883 13.1778 11.0883 13.8935 11.0907 14.61C11.0907 14.7905 11.1577 14.8502 11.3379 14.8502C11.7775 14.8517 12.2178 14.8517 12.6573 14.8502C12.8607 14.8502 12.9117 14.7976 12.9125 14.5959C12.9133 14.2474 12.9125 13.8982 12.9125 13.5498Z"/>
</mask>
<path d="M11.9872 19.9992C9.83754 19.9992 7.68705 20.0016 5.53736 19.9976C4.84977 19.9961 4.32252 19.6884 3.95719 19.1234C3.75778 18.8142 3.70832 18.4579 3.70752 18.0977C3.70593 16.5186 3.70673 14.9404 3.70673 13.3614C3.70673 13.323 3.70673 13.2845 3.70673 13.2468C3.70832 13.1519 3.66605 13.1056 3.56554 13.0859C3.44509 13.0616 3.32225 13.0271 3.21457 12.9706C3.03191 12.8725 3 12.6936 3 12.506C3 11.7895 3 11.0729 3 10.3564C3 9.73173 3 9.10703 3 8.48234C3 8.22021 3.02313 7.95888 3.12842 7.71716C3.27679 7.37734 3.50173 7.09246 3.8176 6.88371C4.15262 6.66318 4.52114 6.54938 4.92555 6.54938C6.12523 6.54938 7.32491 6.54782 8.52459 6.54703C8.58681 6.54703 8.64983 6.54311 8.71125 6.54703C8.80457 6.55409 8.83967 6.51171 8.85562 6.42382C8.90268 6.16876 8.93698 5.90821 9.01595 5.66178C9.20181 5.08103 9.54001 4.60466 10.1056 4.32213C10.4071 4.17145 10.7277 4.06394 11.0715 4.04903C11.5302 4.02941 11.9888 3.99095 12.4467 4.00194C12.9404 4.01371 13.4318 4.08513 13.8801 4.3135C14.2534 4.50421 14.5445 4.78046 14.7527 5.14617C14.9801 5.54406 15.0877 5.97413 15.142 6.41989C15.1563 6.53918 15.2194 6.54782 15.3151 6.54782C16.5028 6.54625 17.6913 6.54625 18.879 6.54782C19.1239 6.54782 19.3664 6.55488 19.6073 6.62394C20.0859 6.76049 20.448 7.0391 20.7144 7.44719C20.925 7.76974 21.0008 8.12761 21 8.50588C20.9992 9.82826 21 11.1499 21 12.4722C21 12.8387 20.8548 13.0083 20.4863 13.0797C20.2957 13.1166 20.2925 13.1205 20.2925 13.3088C20.2925 14.9263 20.2933 16.543 20.2925 18.1604C20.2925 18.8487 20.0037 19.3879 19.4047 19.7504C19.1327 19.9152 18.8304 20 18.5081 20C16.3345 20 14.1609 20 11.988 20L11.9872 19.9992ZM12.0279 7.51704C9.72986 7.51704 7.4326 7.51704 5.13454 7.51704C4.93273 7.51704 4.73092 7.5139 4.54188 7.60886C4.33768 7.71167 4.1606 7.84587 4.0912 8.06326C4.03217 8.25004 3.99229 8.44859 3.98272 8.64322C3.96597 9.0105 3.97793 9.37857 3.97793 9.74664C3.97793 10.4977 3.97793 11.2487 3.97793 11.9998C3.97793 12.1819 3.97793 12.1866 4.159 12.236C4.26349 12.2643 4.37277 12.2745 4.47966 12.2949C4.84499 12.3663 5.21032 12.4432 5.57644 12.5099C5.80537 12.5515 6.03669 12.579 6.26721 12.6119C6.75139 12.6818 7.23478 12.7618 7.72135 12.8191C8.1457 12.8693 8.57325 12.8929 9 12.929C9.06222 12.9345 9.12364 12.9439 9.18585 12.9486C9.45387 12.9667 9.72188 12.9831 9.98989 12.9996C10.0721 13.0043 10.1119 12.9674 10.1111 12.8843C10.1095 12.7461 10.1064 12.608 10.1127 12.4707C10.1255 12.1936 10.167 11.9252 10.3552 11.6976C10.624 11.372 10.9846 11.2668 11.389 11.2637C11.7942 11.2605 12.1994 11.2574 12.6038 11.2652C12.8288 11.2699 13.0561 11.2817 13.2627 11.3892C13.565 11.547 13.7939 11.7722 13.8442 12.1159C13.8801 12.3647 13.8777 12.619 13.8865 12.8709C13.8897 12.9698 13.9279 13.009 14.0292 13.0012C14.1609 12.991 14.2941 12.9941 14.4257 12.9824C14.9912 12.9345 15.5568 12.8858 16.1223 12.8325C16.4206 12.8042 16.7182 12.772 17.0141 12.7297C17.4368 12.6684 17.8588 12.5962 18.28 12.5264C18.6517 12.4644 19.0234 12.4016 19.3943 12.3349C19.5538 12.3059 19.711 12.2611 19.8705 12.2305C19.9989 12.2062 20.0324 12.1363 20.0316 12.0116C20.0268 10.8854 20.0292 9.75842 20.0284 8.63223C20.0284 8.55925 20.0237 8.48705 20.0189 8.41406C19.9997 8.12525 19.8936 7.87883 19.6504 7.70303C19.4366 7.54843 19.1909 7.51625 18.9333 7.51625C16.632 7.51782 14.3292 7.51704 12.0279 7.51704ZM11.9904 19.0331C14.117 19.0331 16.2435 19.0331 18.3701 19.0331C18.4243 19.0331 18.4818 19.0418 18.5328 19.0284C18.6557 18.997 18.7849 18.9727 18.895 18.9146C19.21 18.7483 19.3289 18.4485 19.3313 18.1275C19.3433 16.5759 19.3369 15.0236 19.3361 13.4721C19.3361 13.3261 19.3201 13.3143 19.1694 13.3394C18.8519 13.3928 18.5352 13.4501 18.217 13.5011C17.7455 13.5772 17.2741 13.6573 16.8003 13.7208C16.3576 13.7797 15.9117 13.8237 15.4666 13.8645C14.9976 13.9068 14.5278 13.9398 14.0572 13.9688C13.9447 13.9759 13.9096 14.0151 13.912 14.1211C13.916 14.3432 13.9184 14.5661 13.9064 14.7874C13.896 14.9844 13.8298 15.1696 13.711 15.3305C13.4621 15.6671 13.1167 15.8194 12.6979 15.8194C12.2385 15.8194 11.7782 15.828 11.3196 15.8155C11.1521 15.8108 10.971 15.7888 10.8211 15.7213C10.3911 15.5274 10.1454 15.1963 10.1454 14.7144C10.1454 14.5151 10.1407 14.3157 10.1454 14.1164C10.1478 14.0136 10.104 13.9759 10.0027 13.9696C9.63733 13.9477 9.272 13.9249 8.90827 13.8911C8.47514 13.8503 8.04201 13.7993 7.60968 13.7507C7.32013 13.7185 7.03058 13.684 6.74103 13.6479C6.48657 13.6157 6.23132 13.5851 5.97846 13.5427C5.60755 13.4799 5.23823 13.4061 4.86812 13.3402C4.72933 13.3159 4.70061 13.341 4.70061 13.4815C4.70061 15.0636 4.69742 16.6466 4.7046 18.2287C4.7046 18.3574 4.74448 18.4979 4.8067 18.6117C4.97341 18.9162 5.25259 19.0363 5.60037 19.0355C7.73092 19.0331 9.86147 19.0339 11.9912 19.0339L11.9904 19.0331ZM11.9992 6.54703C12.6652 6.54703 13.3313 6.54703 13.9965 6.54703C14.1561 6.54703 14.1816 6.53055 14.1521 6.37438C14.1162 6.17975 14.0651 5.98669 14.0013 5.79912C13.9088 5.52837 13.7229 5.3306 13.4669 5.1909C13.171 5.03002 12.8431 5.00412 12.5201 4.97822C12.0072 4.93663 11.4927 4.94997 10.9838 5.03865C10.7437 5.08025 10.5211 5.16971 10.3313 5.3251C9.99947 5.59743 9.91172 5.98355 9.84552 6.37359C9.8184 6.53212 9.84153 6.54625 10.0019 6.54625C10.6679 6.54625 11.334 6.54703 11.9992 6.54703ZM12.9125 13.5498C12.9125 13.1895 12.9133 12.8301 12.9125 12.4699C12.9125 12.3129 12.8367 12.2313 12.678 12.2305C12.2265 12.2266 11.7751 12.2274 11.3236 12.2305C11.1744 12.2313 11.0915 12.3145 11.0907 12.4613C11.0883 13.1778 11.0883 13.8935 11.0907 14.61C11.0907 14.7905 11.1577 14.8502 11.3379 14.8502C11.7775 14.8517 12.2178 14.8517 12.6573 14.8502C12.8607 14.8502 12.9117 14.7976 12.9125 14.5959C12.9133 14.2474 12.9125 13.8982 12.9125 13.5498Z" fill="#007187"/>
<path d="M11.9872 19.9992C9.83754 19.9992 7.68705 20.0016 5.53736 19.9976C4.84977 19.9961 4.32252 19.6884 3.95719 19.1234C3.75778 18.8142 3.70832 18.4579 3.70752 18.0977C3.70593 16.5186 3.70673 14.9404 3.70673 13.3614C3.70673 13.323 3.70673 13.2845 3.70673 13.2468C3.70832 13.1519 3.66605 13.1056 3.56554 13.0859C3.44509 13.0616 3.32225 13.0271 3.21457 12.9706C3.03191 12.8725 3 12.6936 3 12.506C3 11.7895 3 11.0729 3 10.3564C3 9.73173 3 9.10703 3 8.48234C3 8.22021 3.02313 7.95888 3.12842 7.71716C3.27679 7.37734 3.50173 7.09246 3.8176 6.88371C4.15262 6.66318 4.52114 6.54938 4.92555 6.54938C6.12523 6.54938 7.32491 6.54782 8.52459 6.54703C8.58681 6.54703 8.64983 6.54311 8.71125 6.54703C8.80457 6.55409 8.83967 6.51171 8.85562 6.42382C8.90268 6.16876 8.93698 5.90821 9.01595 5.66178C9.20181 5.08103 9.54001 4.60466 10.1056 4.32213C10.4071 4.17145 10.7277 4.06394 11.0715 4.04903C11.5302 4.02941 11.9888 3.99095 12.4467 4.00194C12.9404 4.01371 13.4318 4.08513 13.8801 4.3135C14.2534 4.50421 14.5445 4.78046 14.7527 5.14617C14.9801 5.54406 15.0877 5.97413 15.142 6.41989C15.1563 6.53918 15.2194 6.54782 15.3151 6.54782C16.5028 6.54625 17.6913 6.54625 18.879 6.54782C19.1239 6.54782 19.3664 6.55488 19.6073 6.62394C20.0859 6.76049 20.448 7.0391 20.7144 7.44719C20.925 7.76974 21.0008 8.12761 21 8.50588C20.9992 9.82826 21 11.1499 21 12.4722C21 12.8387 20.8548 13.0083 20.4863 13.0797C20.2957 13.1166 20.2925 13.1205 20.2925 13.3088C20.2925 14.9263 20.2933 16.543 20.2925 18.1604C20.2925 18.8487 20.0037 19.3879 19.4047 19.7504C19.1327 19.9152 18.8304 20 18.5081 20C16.3345 20 14.1609 20 11.988 20L11.9872 19.9992ZM12.0279 7.51704C9.72986 7.51704 7.4326 7.51704 5.13454 7.51704C4.93273 7.51704 4.73092 7.5139 4.54188 7.60886C4.33768 7.71167 4.1606 7.84587 4.0912 8.06326C4.03217 8.25004 3.99229 8.44859 3.98272 8.64322C3.96597 9.0105 3.97793 9.37857 3.97793 9.74664C3.97793 10.4977 3.97793 11.2487 3.97793 11.9998C3.97793 12.1819 3.97793 12.1866 4.159 12.236C4.26349 12.2643 4.37277 12.2745 4.47966 12.2949C4.84499 12.3663 5.21032 12.4432 5.57644 12.5099C5.80537 12.5515 6.03669 12.579 6.26721 12.6119C6.75139 12.6818 7.23478 12.7618 7.72135 12.8191C8.1457 12.8693 8.57325 12.8929 9 12.929C9.06222 12.9345 9.12364 12.9439 9.18585 12.9486C9.45387 12.9667 9.72188 12.9831 9.98989 12.9996C10.0721 13.0043 10.1119 12.9674 10.1111 12.8843C10.1095 12.7461 10.1064 12.608 10.1127 12.4707C10.1255 12.1936 10.167 11.9252 10.3552 11.6976C10.624 11.372 10.9846 11.2668 11.389 11.2637C11.7942 11.2605 12.1994 11.2574 12.6038 11.2652C12.8288 11.2699 13.0561 11.2817 13.2627 11.3892C13.565 11.547 13.7939 11.7722 13.8442 12.1159C13.8801 12.3647 13.8777 12.619 13.8865 12.8709C13.8897 12.9698 13.9279 13.009 14.0292 13.0012C14.1609 12.991 14.2941 12.9941 14.4257 12.9824C14.9912 12.9345 15.5568 12.8858 16.1223 12.8325C16.4206 12.8042 16.7182 12.772 17.0141 12.7297C17.4368 12.6684 17.8588 12.5962 18.28 12.5264C18.6517 12.4644 19.0234 12.4016 19.3943 12.3349C19.5538 12.3059 19.711 12.2611 19.8705 12.2305C19.9989 12.2062 20.0324 12.1363 20.0316 12.0116C20.0268 10.8854 20.0292 9.75842 20.0284 8.63223C20.0284 8.55925 20.0237 8.48705 20.0189 8.41406C19.9997 8.12525 19.8936 7.87883 19.6504 7.70303C19.4366 7.54843 19.1909 7.51625 18.9333 7.51625C16.632 7.51782 14.3292 7.51704 12.0279 7.51704ZM11.9904 19.0331C14.117 19.0331 16.2435 19.0331 18.3701 19.0331C18.4243 19.0331 18.4818 19.0418 18.5328 19.0284C18.6557 18.997 18.7849 18.9727 18.895 18.9146C19.21 18.7483 19.3289 18.4485 19.3313 18.1275C19.3433 16.5759 19.3369 15.0236 19.3361 13.4721C19.3361 13.3261 19.3201 13.3143 19.1694 13.3394C18.8519 13.3928 18.5352 13.4501 18.217 13.5011C17.7455 13.5772 17.2741 13.6573 16.8003 13.7208C16.3576 13.7797 15.9117 13.8237 15.4666 13.8645C14.9976 13.9068 14.5278 13.9398 14.0572 13.9688C13.9447 13.9759 13.9096 14.0151 13.912 14.1211C13.916 14.3432 13.9184 14.5661 13.9064 14.7874C13.896 14.9844 13.8298 15.1696 13.711 15.3305C13.4621 15.6671 13.1167 15.8194 12.6979 15.8194C12.2385 15.8194 11.7782 15.828 11.3196 15.8155C11.1521 15.8108 10.971 15.7888 10.8211 15.7213C10.3911 15.5274 10.1454 15.1963 10.1454 14.7144C10.1454 14.5151 10.1407 14.3157 10.1454 14.1164C10.1478 14.0136 10.104 13.9759 10.0027 13.9696C9.63733 13.9477 9.272 13.9249 8.90827 13.8911C8.47514 13.8503 8.04201 13.7993 7.60968 13.7507C7.32013 13.7185 7.03058 13.684 6.74103 13.6479C6.48657 13.6157 6.23132 13.5851 5.97846 13.5427C5.60755 13.4799 5.23823 13.4061 4.86812 13.3402C4.72933 13.3159 4.70061 13.341 4.70061 13.4815C4.70061 15.0636 4.69742 16.6466 4.7046 18.2287C4.7046 18.3574 4.74448 18.4979 4.8067 18.6117C4.97341 18.9162 5.25259 19.0363 5.60037 19.0355C7.73092 19.0331 9.86147 19.0339 11.9912 19.0339L11.9904 19.0331ZM11.9992 6.54703C12.6652 6.54703 13.3313 6.54703 13.9965 6.54703C14.1561 6.54703 14.1816 6.53055 14.1521 6.37438C14.1162 6.17975 14.0651 5.98669 14.0013 5.79912C13.9088 5.52837 13.7229 5.3306 13.4669 5.1909C13.171 5.03002 12.8431 5.00412 12.5201 4.97822C12.0072 4.93663 11.4927 4.94997 10.9838 5.03865C10.7437 5.08025 10.5211 5.16971 10.3313 5.3251C9.99947 5.59743 9.91172 5.98355 9.84552 6.37359C9.8184 6.53212 9.84153 6.54625 10.0019 6.54625C10.6679 6.54625 11.334 6.54703 11.9992 6.54703ZM12.9125 13.5498C12.9125 13.1895 12.9133 12.8301 12.9125 12.4699C12.9125 12.3129 12.8367 12.2313 12.678 12.2305C12.2265 12.2266 11.7751 12.2274 11.3236 12.2305C11.1744 12.2313 11.0915 12.3145 11.0907 12.4613C11.0883 13.1778 11.0883 13.8935 11.0907 14.61C11.0907 14.7905 11.1577 14.8502 11.3379 14.8502C11.7775 14.8517 12.2178 14.8517 12.6573 14.8502C12.8607 14.8502 12.9117 14.7976 12.9125 14.5959C12.9133 14.2474 12.9125 13.8982 12.9125 13.5498Z" stroke="#007187" stroke-width="0.6" mask="url(#path-1-outside-1_899_91)"/>
</svg>
