<svg width="44" height="44" viewBox="0 0 44 44" fill="none" xmlns="http://www.w3.org/2000/svg">
<mask id="mask0_899_530" style="mask-type:luminance" maskUnits="userSpaceOnUse" x="0" y="0" width="44" height="44">
<path d="M44 0H0V44H44V0Z" fill="white"/>
</mask>
<g mask="url(#mask0_899_530)">
<mask id="mask1_899_530" style="mask-type:luminance" maskUnits="userSpaceOnUse" x="0" y="0" width="44" height="44">
<path d="M44 0H0V44H44V0Z" fill="white"/>
</mask>
<g mask="url(#mask1_899_530)">
<path d="M34.4998 15.0991H34.0618V12.4711C34.0618 10.0181 28.6298 8.09009 21.7958 8.09009C14.9618 8.09009 9.52983 10.0181 9.52983 12.4711V15.0991H9.09183C8.74334 15.0991 8.40912 15.2375 8.16269 15.4839C7.91627 15.7304 7.77783 16.0646 7.77783 16.4131V20.7931C7.7781 21.1415 7.91662 21.4756 8.16299 21.7219C8.40935 21.9683 8.74342 22.1068 9.09183 22.1071H9.52983V30.8681C9.5301 31.3327 9.71476 31.7781 10.0433 32.1066C10.3718 32.4352 10.8173 32.6198 11.2818 32.6201V34.3721C11.2821 34.8367 11.4668 35.2821 11.7953 35.6106C12.1238 35.9392 12.5693 36.1238 13.0338 36.1241H14.7858C15.2504 36.1238 15.6959 35.9392 16.0244 35.6106C16.3529 35.2821 16.5376 34.8367 16.5378 34.3721V32.6211H27.0528V34.3731C27.0531 34.8377 27.2378 35.2831 27.5663 35.6116C27.8948 35.9402 28.3403 36.1248 28.8048 36.1251H30.5568C30.7872 36.1255 31.0154 36.0805 31.2284 35.9926C31.4413 35.9047 31.6349 35.7758 31.798 35.6131C31.9611 35.4503 32.0905 35.2571 32.1788 35.0443C32.2672 34.8316 32.3127 34.6035 32.3128 34.3731V32.6211H32.6638C32.8484 32.6235 33.0315 32.5889 33.2024 32.5194C33.3734 32.4499 33.5287 32.3469 33.6592 32.2164C33.7897 32.0859 33.8927 31.9306 33.9622 31.7597C34.0317 31.5887 34.0662 31.4056 34.0638 31.2211V22.1081H34.5018C34.8497 22.107 35.183 21.9682 35.4287 21.7219C35.6745 21.4756 35.8126 21.142 35.8128 20.7941V16.4141C35.8128 16.0656 35.6744 15.7314 35.428 15.485C35.1815 15.2385 34.8473 15.1001 34.4988 15.1001M13.9128 29.9931C13.5663 29.9931 13.2276 29.8903 12.9395 29.6978C12.6514 29.5053 12.4268 29.2317 12.2942 28.9116C12.1616 28.5914 12.1269 28.2391 12.1945 27.8993C12.2621 27.5594 12.429 27.2473 12.674 27.0022C12.919 26.7572 13.2312 26.5904 13.571 26.5228C13.9109 26.4552 14.2632 26.4898 14.5833 26.6224C14.9034 26.7551 15.1771 26.9796 15.3696 27.2677C15.5621 27.5558 15.6648 27.8946 15.6648 28.2411C15.6648 28.7057 15.4802 29.1514 15.1517 29.4799C14.8231 29.8085 14.3775 29.9931 13.9128 29.9931ZM14.7888 23.8601C14.3243 23.8598 13.8788 23.6752 13.5503 23.3466C13.2218 23.0181 13.0371 22.5727 13.0368 22.1081V15.0991C13.0371 14.6345 13.2218 14.189 13.5503 13.8605C13.8788 13.532 14.3243 13.3474 14.7888 13.3471H28.8048C29.2694 13.3474 29.7149 13.532 30.0434 13.8605C30.3719 14.189 30.5566 14.6345 30.5568 15.0991V22.1081C30.5566 22.5727 30.3719 23.0181 30.0434 23.3466C29.7149 23.6752 29.2694 23.8598 28.8048 23.8601H14.7888ZM29.6828 29.9931C29.3363 29.9931 28.9976 29.8903 28.7095 29.6978C28.4214 29.5053 28.1968 29.2317 28.0642 28.9116C27.9316 28.5914 27.8969 28.2391 27.9645 27.8993C28.0321 27.5594 28.199 27.2473 28.444 27.0022C28.689 26.7572 29.0012 26.5904 29.341 26.5228C29.6809 26.4552 30.0332 26.4898 30.3533 26.6224C30.6734 26.7551 30.9471 26.9796 31.1396 27.2677C31.3321 27.5558 31.4348 27.8946 31.4348 28.2411C31.4348 28.7057 31.2502 29.1514 30.9217 29.4799C30.5931 29.8085 30.1475 29.9931 29.6828 29.9931Z" fill="url(#paint0_linear_899_530)"/>
</g>
</g>
<defs>
<linearGradient id="paint0_linear_899_530" x1="7.77783" y1="22.1076" x2="35.8128" y2="22.1076" gradientUnits="userSpaceOnUse">
<stop offset="0.5" stop-color="#01BCBA"/>
<stop offset="1" stop-color="#36D6C7"/>
</linearGradient>
</defs>
</svg>
