<svg width="24" height="24" viewBox="0 0 24 24" fill="none" xmlns="http://www.w3.org/2000/svg">
<path d="M3.55547 11.7537C3.46449 11.8227 3.42086 11.8521 3.38094 11.8871C2.99194 12.2256 2.52774 12.2114 2.20745 11.8511C1.90572 11.5116 1.93172 11.0444 2.29472 10.6945C2.7812 10.2244 3.28067 9.7667 3.77643 9.30706C5.78454 7.44489 7.79451 5.58556 9.80263 3.72339C10.8257 2.77481 12.1403 2.75305 13.1625 3.69407C15.0685 5.44843 16.9642 7.21318 18.8656 8.97321C19.4876 9.54917 20.1189 10.1157 20.7326 10.7011C21.181 11.1286 21.0436 11.853 20.4838 12.0771C20.1913 12.1944 19.924 12.1197 19.6798 11.9334C19.6148 11.8842 19.5498 11.836 19.4468 11.7594C19.4366 11.9012 19.4236 11.9996 19.4236 12.097C19.4236 14.3772 19.4236 16.6574 19.4254 18.9376C19.4254 19.3802 19.431 19.8181 19.1877 20.2143C18.8795 20.7175 18.4237 20.9804 17.8601 20.9889C16.5325 21.0088 15.2049 20.9974 13.8773 20.9898C13.3983 20.987 13.0743 20.6286 13.0734 20.115C13.0724 18.4089 13.078 16.7028 13.0734 14.9967C13.0724 14.4973 13.1309 14.5616 12.6379 14.5588C11.8274 14.5541 11.017 14.5597 10.2065 14.5493C10.0041 14.5465 9.92425 14.5909 9.9261 14.8217C9.93539 16.5827 9.93167 18.3437 9.92889 20.1056C9.92889 20.656 9.60395 20.9861 9.06363 20.988C7.78987 20.9908 6.51612 20.9984 5.24329 20.987C4.25177 20.9785 3.58982 20.2985 3.58518 19.2922C3.57868 17.6495 3.58518 16.0058 3.58704 14.363C3.58704 13.5922 3.58704 12.8224 3.58518 12.0516C3.58518 11.9693 3.56754 11.8871 3.55269 11.7537H3.55547ZM5.20059 14.7366C5.20059 14.7366 5.19687 14.7366 5.19409 14.7366C5.19409 16.1911 5.19501 17.6457 5.19223 19.0993C5.19223 19.2572 5.19966 19.3698 5.40855 19.3669C6.27288 19.3556 7.13721 19.3584 8.00155 19.3547C8.33112 19.3528 8.33298 19.3509 8.33298 19.0076C8.33298 17.3014 8.33298 15.5953 8.33298 13.8901C8.33298 13.2414 8.62171 12.9208 9.25209 12.917C10.7728 12.9075 12.2926 12.9066 13.8133 12.9103C14.3425 12.9113 14.6665 13.2423 14.6683 13.7814C14.673 15.5499 14.673 17.3185 14.6674 19.088C14.6674 19.2885 14.7185 19.366 14.9283 19.3632C15.7843 19.3509 16.6412 19.3565 17.4981 19.3528C17.8044 19.3518 17.8082 19.348 17.8082 19.0435C17.8109 16.2687 17.8063 13.4929 17.823 10.7181C17.8249 10.3474 17.7515 10.0693 17.4387 9.85938C17.2799 9.75251 17.1527 9.59646 17.0107 9.46406C15.385 7.95654 13.7585 6.45186 12.1347 4.94151C11.7123 4.54902 11.3363 4.52632 10.9102 4.91975C9.04692 6.63912 7.18642 8.36321 5.33242 10.093C5.25165 10.1686 5.20801 10.3247 5.20708 10.4438C5.19873 11.8748 5.20151 13.3057 5.20151 14.7366H5.20059Z" fill="#007187"/>
</svg>
