<svg width="32" height="29" viewBox="0 0 32 29" fill="none" xmlns="http://www.w3.org/2000/svg">
<path d="M16.0533 2.41663L5.33301 10.3078V21.8564C5.33381 22.6513 5.68254 23.4135 6.30268 23.9756C6.92281 24.5378 7.7637 24.8541 8.64084 24.855H23.3585C24.2356 24.8541 25.0765 24.5378 25.6967 23.9756C26.3168 23.4135 26.6655 22.6513 26.6663 21.8564V10.3142L16.0533 2.41663ZM24.529 21.8564C24.529 22.138 24.4056 22.4082 24.1859 22.6074C23.9662 22.8067 23.6683 22.9187 23.3575 22.919H21.0379V17.0786C21.0383 16.8524 20.9895 16.6285 20.8943 16.4194C20.7992 16.2104 20.6595 16.0204 20.4833 15.8603C20.3071 15.7001 20.0978 15.5731 19.8674 15.4863C19.637 15.3995 19.39 15.3547 19.1404 15.3545H13.0594C12.5564 15.3549 12.0742 15.5363 11.7187 15.8587C11.3631 16.1811 11.1632 16.6182 11.163 17.074V22.9144H8.64084C8.33006 22.9141 8.03209 22.8021 7.81243 22.6028C7.59277 22.4036 7.46938 22.1335 7.46938 21.8518V11.2327L16.0412 4.91519L24.5259 11.2281L24.529 21.8564ZM13.2983 17.2942H18.9015V22.919H13.2983V17.2942Z" fill="#212121"/>
</svg>
