<svg width="36" height="36" viewBox="0 0 36 36" fill="none" xmlns="http://www.w3.org/2000/svg">
<path d="M30.1909 16.6364C29.882 13.8711 28.642 11.293 26.6745 9.32549C24.707 7.35798 22.1289 6.11797 19.3636 5.80909V3H16.6364V5.80909C13.8711 6.11797 11.293 7.35798 9.32549 9.32549C7.35798 11.293 6.11797 13.8711 5.80909 16.6364H3V19.3636H5.80909C6.11797 22.1289 7.35798 24.707 9.32549 26.6745C11.293 28.642 13.8711 29.882 16.6364 30.1909V33H19.3636V30.1909C22.1289 29.882 24.707 28.642 26.6745 26.6745C28.642 24.707 29.882 22.1289 30.1909 19.3636H33V16.6364H30.1909ZM18 27.5455C16.1121 27.5455 14.2666 26.9856 12.6968 25.9368C11.1271 24.8879 9.90362 23.3971 9.18115 21.6529C8.45868 19.9087 8.26965 17.9894 8.63796 16.1378C9.00627 14.2861 9.91539 12.5853 11.2503 11.2503C12.5853 9.91539 14.2861 9.00627 16.1378 8.63796C17.9894 8.26965 19.9087 8.45868 21.6529 9.18115C23.3971 9.90362 24.8879 11.1271 25.9368 12.6968C26.9856 14.2666 27.5455 16.1121 27.5455 18C27.5464 19.2538 27.3002 20.4955 26.8208 21.654C26.3414 22.8126 25.6384 23.8652 24.7518 24.7518C23.8652 25.6384 22.8126 26.3414 21.654 26.8208C20.4955 27.3002 19.2538 27.5464 18 27.5455Z" fill="#0C7187"/>
<path d="M15.4999 14.2584C16.24 13.7639 17.11 13.5 18 13.5C19.1935 13.5 20.3381 13.9741 21.182 14.818C22.0259 15.6619 22.5 16.8065 22.5 18C22.5 18.89 22.2361 19.76 21.7416 20.5001C21.2471 21.2401 20.5443 21.8169 19.7221 22.1575C18.8998 22.4981 17.995 22.5872 17.1221 22.4135C16.2492 22.2399 15.4474 21.8113 14.818 21.182C14.1887 20.5526 13.7601 19.7508 13.5865 18.8779C13.4128 18.005 13.5019 17.1002 13.8425 16.2779C14.1831 15.4557 14.7599 14.7529 15.4999 14.2584Z" fill="#0C7187"/>
</svg>
