<svg width="44" height="44" viewBox="0 0 44 44" fill="none" xmlns="http://www.w3.org/2000/svg">
<mask id="mask0_899_491" style="mask-type:luminance" maskUnits="userSpaceOnUse" x="0" y="0" width="44" height="44">
<path d="M44 0H0V44H44V0Z" fill="white"/>
</mask>
<g mask="url(#mask0_899_491)">
<mask id="mask1_899_491" style="mask-type:luminance" maskUnits="userSpaceOnUse" x="0" y="0" width="44" height="44">
<path d="M44 0H0V44H44V0Z" fill="white"/>
</mask>
<g mask="url(#mask1_899_491)">
<path d="M32.6718 6.80208L31.9058 6.03598C31.2542 5.38336 30.3732 5.01155 29.4511 5.00003H15.2583C14.7918 4.99817 14.3296 5.08876 13.8984 5.26657C13.4671 5.44438 13.0754 5.70589 12.7457 6.03598L11.9797 6.80208C11.3479 7.46321 10.9968 8.34342 11 9.25795V36.6129C11 36.9895 11.1496 37.3507 11.4159 37.617C11.6821 37.8833 12.0432 38.0329 12.4198 38.0329H13.8386C14.2151 38.0329 14.5762 37.8833 14.8425 37.617C15.1087 37.3507 15.2583 36.9895 15.2583 36.6129V35.1939H29.4502V36.6129C29.4501 36.7994 29.4867 36.984 29.558 37.1562C29.6292 37.3285 29.7337 37.4851 29.8655 37.6169C29.9972 37.7488 30.1537 37.8534 30.3259 37.9248C30.4981 37.9961 30.6827 38.0329 30.8691 38.0329H32.2879C32.6644 38.0329 33.0255 37.8833 33.2918 37.617C33.558 37.3507 33.7076 36.9895 33.7076 36.6129V9.25795C33.6963 8.33544 33.3246 7.45397 32.6718 6.80208ZM18.0942 30.9351C18.0942 31.3115 17.9447 31.6724 17.6786 31.9385C17.4125 32.2046 17.0516 32.3541 16.6753 32.3541H15.2583C14.8819 32.3541 14.521 32.2046 14.2547 31.9386C13.9885 31.6725 13.8388 31.3115 13.8386 30.9351V29.5125C13.8386 29.3261 13.8753 29.1415 13.9467 28.9692C14.018 28.797 14.1226 28.6406 14.2545 28.5088C14.3863 28.377 14.5428 28.2725 14.7151 28.2012C14.8873 28.13 15.0719 28.0934 15.2583 28.0935H16.6771C16.8635 28.0934 17.0481 28.13 17.2204 28.2012C17.3926 28.2725 17.5492 28.377 17.681 28.5088C17.8128 28.6406 17.9174 28.797 17.9888 28.9692C18.0602 29.1415 18.0969 29.3261 18.0969 29.5125L18.0942 30.9351ZM30.8673 30.9351C30.867 31.3114 30.7175 31.6722 30.4514 31.9382C30.1854 32.2043 29.8246 32.3539 29.4484 32.3541H28.0314C27.6551 32.3541 27.2942 32.2046 27.0281 31.9385C26.7621 31.6724 26.6126 31.3115 26.6126 30.9351V29.5125C26.6126 29.1361 26.7621 28.7752 27.0281 28.5091C27.2942 28.243 27.6551 28.0935 28.0314 28.0935H29.4511C29.8274 28.0935 30.1883 28.243 30.4544 28.5091C30.7205 28.7752 30.87 29.1361 30.87 29.5125L30.8673 30.9351ZM30.8673 23.8383H13.8395V16.8709H30.87L30.8673 23.8383ZM30.8673 12.9997H13.8395V9.12845H30.87L30.8673 12.9997Z" fill="url(#paint0_linear_899_491)"/>
</g>
</g>
<defs>
<linearGradient id="paint0_linear_899_491" x1="11" y1="21.5164" x2="33.7076" y2="21.5164" gradientUnits="userSpaceOnUse">
<stop offset="0.5" stop-color="#01BCBA"/>
<stop offset="1" stop-color="#36D6C7"/>
</linearGradient>
</defs>
</svg>
