<svg width="24" height="25" viewBox="0 0 24 25" fill="none" xmlns="http://www.w3.org/2000/svg">
<path d="M8.61857 8.13495H6C7.4983 5.89518 8.96772 3.69759 10.4384 1.5C10.4761 1.50228 10.5137 1.50456 10.5514 1.50684C11.899 3.69759 13.2466 5.8872 14.6168 8.11557H12.1326V14.5722C13.3307 13.568 14.7248 12.9742 16.296 12.6618V10.544C18.5553 11.8332 20.7595 13.0904 23 14.3693C20.7595 15.5582 18.5591 16.7253 16.3047 17.921V15.7964C16.0837 15.8237 15.9003 15.8374 15.7195 15.8705C14.706 16.0528 13.8494 16.4985 13.1235 17.1585C12.3775 17.8367 12.0987 18.6756 12.1 19.6125C12.1037 21.5924 12.0962 21.1279 12.1138 23.1066C12.1163 23.403 12.0259 23.5044 11.7018 23.4999C10.7737 23.485 9.84685 23.4896 8.91874 23.4907C8.71151 23.4907 8.62736 23.4292 8.62988 23.2252C8.63867 21.8984 8.6349 20.5705 8.6349 19.2426C8.6349 15.6054 8.6349 11.9693 8.6349 8.33214C8.6349 8.27743 8.62611 8.22158 8.61983 8.13381L8.61857 8.13495Z" fill="white"/>
</svg>
