<svg width="34" height="34" viewBox="0 0 34 34" fill="none" xmlns="http://www.w3.org/2000/svg">
<path d="M28.4686 9.20305C28.4835 9.58951 28.3225 9.96221 28.061 10.2989C27.6555 10.8209 27.2563 11.3461 26.8465 11.8638C26.7587 11.9761 26.7481 12.0608 26.8084 12.1942C26.9937 12.6029 27.1674 13.0169 27.3262 13.4362C27.3812 13.5802 27.4554 13.6458 27.6057 13.6627C28.2262 13.7347 28.8456 13.8205 29.466 13.8904C30.527 14.01 31.1644 14.7152 31.1654 15.7835C31.1654 16.62 31.1686 17.4565 31.1654 18.2929C31.1622 19.2067 30.5714 19.9214 29.6704 20.0664C29.0107 20.1723 28.3448 20.2475 27.6809 20.3205C27.4808 20.3428 27.3749 20.4148 27.3039 20.6096C27.1599 21.0056 26.9937 21.3952 26.8158 21.7774C26.7449 21.9289 26.7597 22.0252 26.8603 22.1523C27.2616 22.6541 27.6544 23.1634 28.0451 23.6727C28.6666 24.4838 28.6275 25.3753 27.9202 26.109C27.3272 26.7242 26.7227 27.3277 26.1086 27.9206C25.3864 28.6173 24.4875 28.6565 23.6924 28.0456C23.1831 27.6538 22.6727 27.2631 22.1708 26.8608C22.0364 26.7538 21.9358 26.7348 21.7727 26.8121C21.3757 26.9995 20.968 27.1678 20.5562 27.3224C20.4079 27.3785 20.3518 27.459 20.3349 27.6051C20.2618 28.2341 20.1761 28.8619 20.1041 29.4919C19.9897 30.501 19.274 31.1542 18.2607 31.1574C17.4242 31.1595 16.5878 31.1595 15.7513 31.1574C14.755 31.1542 14.0392 30.5348 13.9069 29.5533C13.8211 28.917 13.7427 28.2796 13.6718 27.6411C13.6517 27.4611 13.5829 27.369 13.406 27.3044C13.0016 27.1572 12.6045 26.9868 12.2128 26.8078C12.073 26.7443 11.9809 26.7507 11.8602 26.846C11.3498 27.2504 10.8342 27.6496 10.3154 28.0424C9.49269 28.666 8.5927 28.6089 7.86001 27.8846C7.27131 27.3034 6.68685 26.7168 6.10133 26.1313C5.38981 25.4176 5.32628 24.4996 5.93827 23.6981C6.33321 23.1804 6.73026 22.6637 7.13896 22.1565C7.25119 22.0178 7.24908 21.9151 7.17708 21.7584C6.99284 21.3603 6.84249 20.9452 6.65932 20.5461C6.61803 20.455 6.50262 20.3533 6.40838 20.3396C5.79957 20.2485 5.18758 20.1734 4.57559 20.1045C3.45855 19.9796 2.83597 19.2935 2.83491 18.1711C2.83491 17.3432 2.83173 16.5162 2.83491 15.6882C2.83914 14.784 3.44796 14.064 4.34265 13.9274C5.00335 13.8258 5.66828 13.7485 6.33321 13.6744C6.52168 13.6532 6.62438 13.5918 6.69214 13.4012C6.83614 12.9957 7.00661 12.5986 7.18555 12.2069C7.25013 12.0661 7.24061 11.9739 7.14637 11.8554C6.7472 11.3524 6.3565 10.8421 5.96474 10.3317C5.32416 9.4974 5.37181 8.60906 6.10874 7.85836C6.70061 7.25484 7.29778 6.65662 7.90342 6.06686C8.60117 5.38816 9.49692 5.33628 10.2751 5.92286C10.8024 6.31991 11.3244 6.72438 11.8422 7.1352C11.9682 7.23472 12.0635 7.25272 12.217 7.18284C12.6077 7.00285 13.0069 6.83767 13.4124 6.69156C13.5903 6.62697 13.6549 6.53168 13.675 6.35168C13.7438 5.72169 13.8222 5.09276 13.9058 4.46488C14.0403 3.4569 14.7444 2.8375 15.7534 2.83538C16.5983 2.83326 17.4443 2.8322 18.2893 2.83538C19.2221 2.83961 19.9241 3.42513 20.0712 4.34841C20.1761 5.00911 20.2512 5.67404 20.3243 6.33897C20.3455 6.53168 20.4164 6.62485 20.6038 6.6905C21.0009 6.83132 21.3916 6.99649 21.7717 7.17755C21.9337 7.25484 22.0343 7.24002 22.1687 7.13096C22.6695 6.72861 23.1799 6.33686 23.6892 5.9451C24.4875 5.32993 25.4087 5.38075 26.1255 6.08698C26.7332 6.68626 27.3357 7.29296 27.935 7.90071C28.3077 8.27871 28.4676 8.66729 28.4676 9.20093L28.4686 9.20305ZM11.1042 16.9832C11.082 20.2083 13.7533 22.8903 16.9933 22.8977C20.2301 22.904 22.8951 20.2432 22.9004 16.998C22.9057 13.7718 20.2671 11.1248 17.0208 11.1015C13.7872 11.0771 11.1264 13.7231 11.1042 16.9842V16.9832Z" fill="#0C7187"/>
</svg>
