<svg width="30" height="34" viewBox="0 0 30 34" fill="none" xmlns="http://www.w3.org/2000/svg">
<path d="M5.94733 16.1231C7.22943 17.03 8.29837 17.7871 9.45806 18.6077C9.96351 17.9806 10.4584 17.3732 10.9449 16.7596C11.3121 16.2958 11.7131 15.8506 12.0223 15.3504C12.973 13.8122 14.4345 13.26 16.1598 13.1716C16.4658 13.156 16.7708 13.13 17.1063 13.106C17.1971 12.5122 17.1126 12.1534 16.4457 12.0213C15.7715 11.8882 15.3852 11.3453 15.2861 10.7088C15.133 9.72705 15.0402 8.73176 14.999 7.73959C14.9811 7.29447 14.8619 7.13431 14.4208 7.01991C14.0673 6.92839 13.5671 6.6611 13.5059 6.38966C13.4394 6.09534 13.7307 5.63045 13.9966 5.37149C15.0033 4.39076 15.036 4.21708 14.1359 3.12507C14.0208 2.98571 13.8953 2.85571 13.7834 2.71531C12.8675 1.56505 13.0669 0.847448 14.4841 0.449124C17.8998 -0.510805 21.1098 0.126721 24.1552 1.78762C24.8791 2.18282 25.0564 2.92435 24.8274 3.80316C24.5446 4.88893 24.3029 5.9851 24.0634 7.08127C24.0244 7.25911 24.0286 7.49831 24.1193 7.64391C24.629 8.46032 24.4802 9.60745 23.7395 10.1514C22.7507 10.8783 22.5323 11.9496 22.2358 13.0447C22.6895 13.1778 23.0272 13.2776 23.3216 13.364C20.0314 16.6098 16.7581 19.8401 13.4225 23.1307C13.3814 22.6013 13.3413 22.0948 13.2885 21.4303C12.5309 21.9981 11.902 22.4703 11.272 22.9414C9.94135 23.9377 9.03597 23.8514 7.871 22.6689C6.42957 21.2056 4.96386 19.7652 3.37997 18.1865C3.31033 18.6847 3.26812 18.9863 3.19847 19.4803C2.12848 18.6535 1.14501 17.9244 0.21008 17.1392C0.0391339 16.9957 0.0180294 16.6202 0.0169742 16.3509C0.00220104 13.6916 0.0222503 11.0281 9.05909e-05 8.36568C-0.00518553 7.78535 0.219577 7.54199 0.786232 7.45567C2.63182 7.17695 4.47424 6.88054 6.31244 6.55918C6.90864 6.45518 7.09963 6.63406 7.09436 7.22687C7.07114 9.76137 7.06481 12.2969 7.09752 14.8304C7.10597 15.5199 7.0321 16.0534 5.94838 16.121L5.94733 16.1231ZM3.28817 14.7701C3.80628 14.6993 4.18405 14.6141 4.56288 14.6047C5.18757 14.5891 5.40283 14.3249 5.3849 13.6999C5.34163 12.2449 5.37434 10.7879 5.36696 9.33081C5.3659 9.06561 5.31736 8.8004 5.28465 8.4728C4.17561 8.66312 3.16682 8.83576 2.15802 9.00841C2.1327 9.07289 2.10632 9.13737 2.08099 9.20185C3.23857 9.67505 3.36625 10.5736 3.30188 11.6105C3.23963 12.6245 3.28817 13.6458 3.28817 14.769V14.7701ZM16.1345 3.14275C16.1851 3.57955 16.3782 4.04652 16.9744 4.05588C17.6086 4.06628 17.8735 3.60139 17.8671 3.03667C17.8608 2.51666 17.6308 2.08818 17.0293 2.0393C16.5186 1.9977 16.1239 2.46986 16.1355 3.14379L16.1345 3.14275Z" fill="#212121"/>
<path d="M13.9456 33.9949C13.8517 32.0303 13.762 30.1468 13.667 28.1656H25.2016C25.2016 27.319 25.2386 26.5598 25.17 25.81C25.1563 25.6644 24.7331 25.4491 24.4978 25.447C21.7215 25.4262 18.9452 25.4397 16.17 25.4439C15.8714 25.4439 15.5727 25.4439 15.2741 25.4439C15.2393 25.3659 15.2034 25.2889 15.1686 25.2109C16.4106 24.0222 17.6621 22.8428 18.8914 21.6416C21.2308 19.3557 23.5544 17.0541 25.8886 14.763C26.6557 14.01 27.8376 14.1993 28.3219 15.1717C28.5013 15.5337 28.6121 15.9393 28.6902 16.3376C29.1102 18.4946 29.489 20.6588 29.9248 22.8116C30.1918 24.1345 29.7011 25.2754 29.1703 26.4215C28.342 28.2114 27.5295 30.0085 26.6673 31.7828C26.4669 32.1957 26.0922 32.5274 25.8 32.8977C25.7092 33.0131 25.5467 33.1441 25.5572 33.2554C25.6353 34.0708 25.0898 34.0001 24.5506 33.999C21.0514 33.9928 17.5534 33.9959 13.9445 33.9959L13.9456 33.9949Z" fill="#212121"/>
</svg>
