<svg width="39" height="8" viewBox="0 0 39 8" fill="none" xmlns="http://www.w3.org/2000/svg">
<path d="M0.0166603 4.09961C0.171609 4.02923 0.297378 3.9689 0.42516 3.9146C1.28543 3.54659 2.13362 3.1444 3.01099 2.82264C4.17914 2.3943 5.40162 2.23644 6.64221 2.35609C8.28124 2.51496 9.73212 3.20372 11.0924 4.08151C11.8531 4.57219 12.6691 4.65967 13.5233 4.54505C14.3464 4.43444 15.0527 4.0242 15.7329 3.57274C16.6786 2.94531 17.717 2.56423 18.8479 2.47977C20.3099 2.37017 21.637 2.78443 22.8675 3.57072C23.3304 3.86634 23.8163 4.14687 24.3285 4.33892C25.3477 4.72101 26.37 4.72402 27.354 4.16899C28.016 3.79595 28.6761 3.41487 29.3613 3.08708C30.8866 2.35509 32.4914 2.157 34.1586 2.45262C35.3137 2.65673 36.3973 3.06597 37.4518 3.5657C37.819 3.73965 38.1853 3.9146 38.5887 4.10665C38.5887 3.38571 38.5797 2.71002 38.5938 2.03534C38.5978 1.83525 38.5183 1.73972 38.3533 1.65225C36.7555 0.808639 35.0823 0.202328 33.2702 0.0374274C32.1352 -0.0661383 31.0224 0.0374274 29.9811 0.524085C29.163 0.905167 28.3682 1.33652 27.5663 1.75079C26.3428 2.38223 25.1042 2.47373 23.8616 1.8272C23.3726 1.57281 22.9168 1.25608 22.4339 0.990633C20.5121 -0.0631217 18.5471 -0.162665 16.5629 0.793557C15.9773 1.0761 15.438 1.45316 14.8655 1.76386C13.7809 2.35307 12.652 2.46267 11.51 1.95389C10.862 1.66532 10.2402 1.31641 9.61239 0.985606C8.62132 0.465767 7.60309 0.0585427 6.47016 0.016312C4.18819 -0.0701602 2.12356 0.657816 0.150479 1.71358C0.0740113 1.75481 0.0116295 1.89558 0.0096172 1.9921C-0.00446901 2.60244 -0.00044438 3.21277 -0.00044438 3.8231C-0.00044438 3.90354 0.00861104 3.98298 0.0156542 4.09961H0.0166603ZM38.5837 7.30512C38.5837 6.54497 38.5887 5.82705 38.5757 5.10812C38.5746 5.03673 38.4791 4.94222 38.4046 4.90099C36.9507 4.09358 35.4073 3.53855 33.7592 3.29321C32.3787 3.08809 31.0335 3.20573 29.7637 3.82009C28.9437 4.21726 28.1498 4.66872 27.3298 5.06388C26.3368 5.54249 25.3004 5.65611 24.2701 5.20465C23.7067 4.9573 23.1764 4.63152 22.6442 4.3178C20.8109 3.23891 18.8992 3.01871 16.9201 3.8412C16.3154 4.09258 15.756 4.46059 15.1905 4.79843C13.8886 5.57568 12.5564 5.72348 11.178 5.02265C10.5521 4.70391 9.93637 4.36506 9.31256 4.0423C8.1766 3.45409 6.98028 3.13535 5.68837 3.21579C3.71228 3.33846 1.89214 3.96689 0.172615 4.91507C0.0870914 4.96233 0.0096172 5.10611 0.00760488 5.20666C-0.00547517 5.86727 0.00257409 6.52788 0.00559257 7.18848C0.00559257 7.21865 0.0176665 7.24881 0.0307465 7.30814C0.145449 7.25284 0.240027 7.20658 0.335612 7.16033C1.56916 6.55804 2.80976 5.97485 4.1731 5.71343C5.14102 5.52842 6.11398 5.44496 7.09096 5.61891C8.55693 5.87933 9.88003 6.49771 11.1166 7.30009C11.8521 7.7767 12.6439 7.87021 13.475 7.76262C14.2548 7.66207 14.942 7.30613 15.5849 6.87477C16.3013 6.39415 17.065 6.02513 17.9072 5.83409C19.7555 5.4158 21.4287 5.84515 23.0013 6.85466C23.5235 7.18949 24.0991 7.47807 24.6897 7.66006C25.5781 7.93456 26.4756 7.87021 27.3127 7.39964C27.9396 7.04771 28.5523 6.66462 29.2013 6.35996C30.3 5.84414 31.45 5.50931 32.6846 5.52641C34.2472 5.54752 35.7041 5.97184 37.1087 6.61736C37.5856 6.83656 38.0605 7.06179 38.5837 7.30613V7.30512Z" fill="white"/>
<path d="M0.0169719 4.09961C0.00992883 3.98298 0.000873401 3.90354 0.000873401 3.8231C0.000873401 3.21277 -0.00415739 2.60244 0.00992882 1.9921C0.0119411 1.89558 0.074323 1.75481 0.150791 1.71358C2.12387 0.657816 4.1885 -0.0701602 6.47047 0.016312C7.6034 0.0585427 8.62164 0.465767 9.60767 0.985606C10.2365 1.31641 10.8583 1.66431 11.5053 1.95389C12.6463 2.46267 13.7752 2.35307 14.8608 1.76386C15.4333 1.45316 15.9726 1.0761 16.5582 0.793557C18.5424 -0.162665 20.5074 -0.0631217 22.4291 0.990633C22.9131 1.25608 23.3679 1.57281 23.8569 1.8272C25.1005 2.47373 26.3381 2.38223 27.5616 1.75078C28.3635 1.33652 29.1583 0.906172 29.9763 0.524085C31.0187 0.0374274 32.1305 -0.0661383 33.2655 0.0374274C35.0786 0.202328 36.7508 0.807634 38.3486 1.65225C38.5146 1.73972 38.5941 1.83525 38.5891 2.03534C38.575 2.71103 38.584 3.38672 38.584 4.10665C38.1806 3.9146 37.8143 3.73965 37.4471 3.5657C36.3936 3.06496 35.309 2.65673 34.1539 2.45262C32.4867 2.157 30.8819 2.35509 29.3565 3.08708C28.6724 3.41588 28.0113 3.79595 27.3493 4.16899C26.3652 4.72402 25.343 4.72101 24.3237 4.33892C23.8126 4.14687 23.3256 3.86634 22.8628 3.57072C21.6333 2.78443 20.3051 2.37017 18.8432 2.47977C17.7133 2.56423 16.6749 2.94531 15.7281 3.57274C15.048 4.0242 14.3416 4.43344 13.5186 4.54505C12.6644 4.66068 11.8484 4.5732 11.0877 4.08151C9.7274 3.20372 8.27652 2.51496 6.63749 2.35609C5.3969 2.23543 4.17442 2.39329 3.00627 2.82264C2.1289 3.1444 1.28071 3.5476 0.420441 3.9146C0.292659 3.9689 0.166889 4.02923 0.0119411 4.09961H0.0169719Z" fill="#212121"/>
<path d="M38.5833 7.30506C38.0601 7.06072 37.5862 6.83549 37.1083 6.6163C35.7037 5.97077 34.2458 5.54645 32.6842 5.52534C31.4487 5.50825 30.2986 5.84307 29.2009 6.35889C28.5519 6.66356 27.9392 7.04665 27.3124 7.39857C26.4752 7.86914 25.5767 7.93349 24.6893 7.65899C24.0987 7.477 23.5232 7.18842 23.001 6.85359C21.4273 5.84408 19.7551 5.41473 17.9068 5.83302C17.0646 6.02406 16.301 6.39308 15.5846 6.8737C14.9416 7.30506 14.2544 7.661 13.4747 7.76155C12.6436 7.86813 11.8517 7.77563 11.1162 7.29903C9.87966 6.49765 8.55656 5.87827 7.09059 5.61784C6.11261 5.44389 5.14066 5.52735 4.17273 5.71236C2.80939 5.97278 1.56879 6.55697 0.335245 7.15926C0.240666 7.20551 0.145081 7.25177 0.0303792 7.30707C0.0172992 7.24775 0.00522528 7.21758 0.00522528 7.18742C0.00220681 6.52681 -0.00584246 5.8662 0.0072376 5.20559C0.00924991 5.10504 0.0867241 4.96126 0.172248 4.914C1.89177 3.96582 3.71091 3.33739 5.68801 3.21472C6.97891 3.13428 8.17624 3.45403 9.31219 4.04123C9.93601 4.364 10.5518 4.70285 11.1776 5.02159C12.556 5.72241 13.8882 5.57461 15.1902 4.79736C15.7566 4.45952 16.315 4.09151 16.9197 3.84013C18.8989 3.01764 20.8096 3.23785 22.6438 4.31674C23.176 4.62945 23.7063 4.95623 24.2697 5.20358C25.3 5.65605 26.3364 5.54143 27.3295 5.06281C28.1505 4.66765 28.9443 4.21619 29.7634 3.81902C31.0331 3.20466 32.3784 3.08702 33.7588 3.29214C35.4069 3.53748 36.9503 4.09251 38.4042 4.89992C38.4797 4.94115 38.5743 5.03566 38.5753 5.10705C38.5884 5.82498 38.5833 6.5439 38.5833 7.30405V7.30506Z" fill="#212121"/>
</svg>
