<svg width="23" height="32" viewBox="0 0 23 32" fill="none" xmlns="http://www.w3.org/2000/svg">
<path d="M22.8557 16.5427C22.8557 20.9017 22.8586 25.2592 22.8543 29.6181C22.8528 31.0926 21.7264 32.1335 20.2837 31.9555C19.9116 31.9095 19.5237 31.743 19.2046 31.5348C16.7543 29.9311 14.3154 28.3116 11.8866 26.6762C11.5688 26.4623 11.3584 26.4781 11.0493 26.6834C8.59182 28.3173 6.12005 29.9311 3.65686 31.5564C3.02424 31.9742 2.35298 32.1177 1.62018 31.8981C0.664102 31.6109 0.00286251 30.7423 0.00286251 29.7373C0 20.949 -0.00286251 12.1608 0.00572502 3.37258C0.00858753 1.54056 1.53001 0.0129218 3.35486 0.0086145C8.73352 -0.0028715 14.1122 -0.0028715 19.4894 0.0086145C21.3371 0.0129218 22.8457 1.53482 22.85 3.39555C22.8629 7.77746 22.8543 12.1594 22.8543 16.5427H22.8557ZM16.083 17.977C16.0759 17.9153 16.0673 17.7961 16.0472 17.6784C15.8841 16.715 15.7309 15.7487 15.5477 14.7897C15.5076 14.5786 15.5635 14.4594 15.7023 14.3245C16.4394 13.6123 17.1722 12.8973 17.9021 12.1766C18.2313 11.8507 18.3644 11.463 18.2227 11.0022C18.0767 10.5298 17.7404 10.2699 17.271 10.1967C16.2734 10.0402 15.2744 9.88801 14.2725 9.76454C14.0191 9.73295 13.8989 9.6267 13.7973 9.41708C13.3894 8.56856 12.9657 7.72864 12.5593 6.88011C12.3288 6.40057 11.9911 6.09189 11.4357 6.08902C10.8804 6.08614 10.5355 6.38909 10.3036 6.86863C9.88281 7.73726 9.45916 8.60445 9.0212 9.46303C8.96109 9.58076 8.82226 9.71716 8.70346 9.73726C7.71876 9.8995 6.73119 10.0474 5.74219 10.1752C5.22694 10.2426 4.83049 10.4465 4.64872 10.9562C4.46552 11.4688 4.64442 11.8837 5.01798 12.2455C5.72931 12.9318 6.43063 13.631 7.14482 14.3144C7.2994 14.4623 7.34377 14.5958 7.30369 14.8126C7.12622 15.7617 6.97737 16.715 6.80991 17.6669C6.71974 18.1823 6.77127 18.649 7.22354 18.9835C7.67296 19.3151 8.1281 19.252 8.59469 18.9993C9.43054 18.547 10.2821 18.1206 11.1137 17.6583C11.3556 17.5233 11.5345 17.5449 11.7635 17.6683C12.6408 18.145 13.5225 18.6159 14.4127 19.0668C15.2271 19.4803 16.0988 18.9332 16.0844 17.9799L16.083 17.977Z" fill="#212121"/>
</svg>
