<svg width="24" height="24" viewBox="0 0 24 24" fill="none" xmlns="http://www.w3.org/2000/svg">
<path d="M20.6475 23.9995H3.35249C2.91219 23.9995 2.4762 23.9128 2.06942 23.7443C1.66264 23.5757 1.29305 23.3288 0.981731 23.0174C0.670417 22.706 0.423485 22.3364 0.255038 21.9296C0.0865917 21.5228 -7.07558e-05 21.0868 4.33446e-08 20.6465V3.35195C0.000142999 2.46291 0.353414 1.61033 0.982111 0.981731C1.61081 0.353134 2.46345 -1.14935e-08 3.35249 0L20.6475 0C21.5366 0 22.3894 0.353208 23.0181 0.981922C23.6468 1.61064 24 2.46335 24 3.35249V20.6465C24 21.5356 23.6468 22.3883 23.0181 23.017C22.3894 23.6458 21.5366 23.9995 20.6475 23.9995Z" fill="#01BCBA"/>
<path d="M13.1912 6.98905L13.749 8.70528C13.8312 8.95659 13.9906 9.17556 14.2046 9.33096C14.4185 9.48636 14.676 9.57026 14.9405 9.57072H16.7452C17.0096 9.57085 17.2672 9.65466 17.4811 9.81013C17.6949 9.96561 17.8541 10.1848 17.9359 10.4362C18.0176 10.6877 18.0176 10.9586 17.936 11.2101C17.8543 11.4616 17.6952 11.6808 17.4814 11.8364L16.0215 12.897C15.8074 13.0524 15.6481 13.2717 15.5663 13.5233C15.4845 13.775 15.4845 14.046 15.5663 14.2977L16.1241 16.0139C16.2064 16.2656 16.2068 16.5369 16.1253 16.7889C16.0438 17.0409 15.8845 17.2605 15.6704 17.4163C15.4562 17.5721 15.1982 17.656 14.9334 17.656C14.6685 17.656 14.4105 17.572 14.1964 17.4162L12.7365 16.3556C12.5225 16.2001 12.2648 16.1164 12.0003 16.1164C11.7358 16.1164 11.4781 16.2001 11.2641 16.3556L9.80371 17.4162C9.58971 17.5716 9.33201 17.6553 9.06752 17.6553C8.80303 17.6553 8.54533 17.5716 8.33133 17.4162C8.11734 17.2607 7.95804 17.0416 7.87626 16.79C7.79447 16.5385 7.79439 16.2676 7.87604 16.016L8.43383 14.2998C8.51561 14.0481 8.51561 13.7771 8.43383 13.5254C8.35205 13.2738 8.19269 13.0545 7.9786 12.8991L6.51873 11.8384C6.3049 11.6829 6.14577 11.4637 6.06413 11.2122C5.98249 10.9607 5.98253 10.6898 6.06425 10.4383C6.14596 10.1869 6.30516 9.9677 6.51904 9.81223C6.73293 9.65675 6.99052 9.57295 7.25495 9.57281H9.05964C9.32387 9.57166 9.58102 9.4872 9.79446 9.33144C10.0079 9.17568 10.1668 8.95656 10.2485 8.70528L10.8063 6.98905C10.8881 6.73759 11.0474 6.51848 11.2614 6.36309C11.4753 6.20771 11.733 6.12402 11.9974 6.12402C12.2619 6.12402 12.5195 6.20771 12.7335 6.36309C12.9475 6.51848 13.1068 6.73759 13.1886 6.98905" fill="white"/>
</svg>
