<svg width="28" height="26" viewBox="0 0 28 26" fill="none" xmlns="http://www.w3.org/2000/svg">
<path d="M5.9336 12.1918C7.84621 8.48564 9.75881 4.77944 11.6714 1.07547C12.057 0.323517 12.8281 -0.0803496 13.7438 0.0133653C14.4744 0.0869985 14.9995 0.437314 15.3216 1.01745C15.9304 2.10856 16.5392 3.2019 17.1454 4.29301C18.7334 7.14239 20.3213 9.99401 21.9117 12.8434C23.8649 16.3488 25.8105 19.8564 27.7764 23.3573C28.4562 24.5667 27.4897 25.8564 26.1732 25.9233C25.8435 25.9389 25.4757 25.8831 25.1763 25.7649C22.4875 24.7095 19.8089 23.634 17.1277 22.563C16.4605 22.2974 15.7909 22.0341 15.1288 21.7619C14.2461 21.4004 13.371 21.4049 12.4907 21.7619C10.1368 22.7169 7.78026 23.6697 5.42628 24.6225C4.53593 24.9817 3.65572 25.3566 2.75523 25.6935C1.45394 26.1777 0.0359786 25.3833 0.000466023 24.1472C-0.00714382 23.8638 0.079101 23.5559 0.211005 23.2948C2.10839 19.5909 4.021 15.8913 5.93107 12.1918H5.9336Z" fill="#00CBFF"/>
<path fill-rule="evenodd" clip-rule="evenodd" d="M6.84471 13.6918C6.74301 13.8888 6.64132 14.0857 6.53964 14.2826C4.87134 17.5133 3.20414 20.7419 1.54852 23.9739C1.52959 24.0118 1.51513 24.0511 1.50663 24.0844C1.50301 24.0985 1.5013 24.1083 1.50052 24.1136C1.50364 24.136 1.52224 24.1928 1.63702 24.2572C1.78091 24.3379 2.00114 24.3733 2.23124 24.288C2.83872 24.0607 3.42434 23.8204 4.0347 23.5701C4.30509 23.4592 4.58032 23.3463 4.86446 23.2316C5.42745 23.0038 5.99048 22.7759 6.55352 22.5481C8.34503 21.8232 10.1366 21.0983 11.9268 20.372C13.1643 19.87 14.446 19.8614 15.6972 20.3738L15.6992 20.3746C16.2108 20.585 16.7253 20.7892 17.2495 20.9973C17.393 21.0543 17.5373 21.1115 17.6824 21.1693L17.6841 21.17C18.1811 21.3685 18.6777 21.5671 19.1739 21.7655C21.3585 22.639 23.5378 23.5103 25.7244 24.3686L25.7275 24.3698C25.8122 24.4033 25.9645 24.431 26.0996 24.4251C26.2919 24.4145 26.4227 24.3156 26.4752 24.2369C26.4982 24.2023 26.4998 24.1826 26.4999 24.1791C26.5001 24.1765 26.5002 24.1708 26.4976 24.1602C26.4951 24.1495 26.4882 24.1268 26.4688 24.0923C25.0307 21.5313 23.6026 18.9651 22.1763 16.4023C21.6513 15.4589 21.1265 14.5159 20.6015 13.5736M26.1732 25.9233C25.8435 25.9389 25.4757 25.8831 25.1763 25.7649C22.9848 24.9047 20.8 24.0311 18.6151 23.1575C18.1193 22.9593 17.6235 22.761 17.1277 22.563C16.9854 22.5064 16.8431 22.4498 16.7008 22.3933C16.1754 22.1848 15.6497 21.9761 15.1288 21.7619C14.2461 21.4004 13.371 21.4049 12.4907 21.7619C10.7005 22.4882 8.90882 23.2132 7.11789 23.9379C6.55392 24.1661 5.99003 24.3943 5.42628 24.6225C5.15956 24.7301 4.89376 24.8391 4.62805 24.9481C4.00676 25.2029 3.38597 25.4575 2.75523 25.6935C1.45394 26.1777 0.0359786 25.3833 0.000466023 24.1472C-0.00714382 23.8638 0.079101 23.5559 0.211005 23.2948C1.86863 20.0589 3.53787 16.8264 5.20689 13.5943C5.4483 13.1268 5.6897 12.6593 5.93107 12.1918H5.9336C7.84621 8.48564 9.75881 4.77944 11.6714 1.07547C12.057 0.323517 12.8281 -0.0803496 13.7438 0.0133653C14.4744 0.0869985 14.9995 0.437314 15.3216 1.01745C15.9304 2.10856 16.5392 3.2019 17.1454 4.29301C17.5385 4.99831 17.9315 5.70374 18.3246 6.40925C19.5196 8.55396 20.715 10.6993 21.9117 12.8434C22.4377 13.7873 22.9631 14.7314 23.4885 15.6755C24.9142 18.2373 26.3399 20.7991 27.7764 23.3573C28.4562 24.5667 27.4897 25.8564 26.1732 25.9233ZM6.84471 13.6918H6.84748L7.26657 12.8797C9.17919 9.1735 11.0917 5.46746 13.0042 1.76368L13.0062 1.75987C13.0863 1.60356 13.2377 1.4694 13.5911 1.50557L13.5934 1.5058C13.7545 1.52204 13.8351 1.56171 13.8736 1.58654C13.9104 1.61024 13.9581 1.65172 14.0102 1.74566L14.0117 1.74832C14.6201 2.83867 15.2284 3.93123 15.8342 5.02155L15.8352 5.02321C16.2282 5.72846 16.6213 6.43394 17.0144 7.13955C18.2092 9.28386 19.4047 11.4295 20.6015 13.5736" fill="white"/>
</svg>
