<svg width="16" height="16" viewBox="0 0 16 16" fill="none" xmlns="http://www.w3.org/2000/svg">
<path d="M7 1C7 0.447715 6.55228 0 6 0H1C0.447715 0 0 0.447715 0 1V6C0 6.55228 0.447715 7 1 7H6C6.55228 7 7 6.55228 7 6V1ZM5.44444 4.44444C5.44444 4.99673 4.99673 5.44444 4.44444 5.44444H2.55556C2.00327 5.44444 1.55556 4.99673 1.55556 4.44444V2.55556C1.55556 2.00327 2.00327 1.55556 2.55556 1.55556H4.44444C4.99673 1.55556 5.44444 2.00327 5.44444 2.55556V4.44444Z" fill="#212121"/>
<path d="M16 1C16 0.447715 15.5523 0 15 0H10C9.44772 0 9 0.447715 9 1V6C9 6.55228 9.44772 7 10 7H15C15.5523 7 16 6.55228 16 6V1ZM14.4444 4.44444C14.4444 4.99673 13.9967 5.44444 13.4444 5.44444H11.5556C11.0033 5.44444 10.5556 4.99673 10.5556 4.44444V2.55556C10.5556 2.00327 11.0033 1.55556 11.5556 1.55556H13.4444C13.9967 1.55556 14.4444 2.00327 14.4444 2.55556V4.44444Z" fill="#212121"/>
<path d="M7 10C7 9.44772 6.55228 9 6 9H1C0.447715 9 0 9.44772 0 10V15C0 15.5523 0.447715 16 1 16H6C6.55228 16 7 15.5523 7 15V10ZM5.44444 13.4444C5.44444 13.9967 4.99673 14.4444 4.44444 14.4444H2.55556C2.00327 14.4444 1.55556 13.9967 1.55556 13.4444V11.5556C1.55556 11.0033 2.00327 10.5556 2.55556 10.5556H4.44444C4.99673 10.5556 5.44444 11.0033 5.44444 11.5556V13.4444Z" fill="#212121"/>
<path d="M16 10C16 9.44772 15.5523 9 15 9H10C9.44772 9 9 9.44772 9 10V15C9 15.5523 9.44772 16 10 16H15C15.5523 16 16 15.5523 16 15V10ZM14.4444 13.4444C14.4444 13.9967 13.9967 14.4444 13.4444 14.4444H11.5556C11.0033 14.4444 10.5556 13.9967 10.5556 13.4444V11.5556C10.5556 11.0033 11.0033 10.5556 11.5556 10.5556H13.4444C13.9967 10.5556 14.4444 11.0033 14.4444 11.5556V13.4444Z" fill="#212121"/>
</svg>
