<svg width="19" height="17" viewBox="0 0 19 17" fill="none" xmlns="http://www.w3.org/2000/svg">
<path fill-rule="evenodd" clip-rule="evenodd" d="M16.668 16.9981H18.5797L18.5776 16.9971C18.5795 16.9553 18.5817 16.9188 18.5837 16.8855C18.587 16.8298 18.5897 16.7833 18.5897 16.7367C18.5897 16.2901 18.5897 15.8435 18.5897 15.3968C18.5899 12.2727 18.59 9.14808 18.5847 6.0242C18.5847 5.91259 18.5364 5.77484 18.4619 5.69239C17.5639 4.69323 16.6632 3.6967 15.7625 2.70017C15.087 1.95275 14.4114 1.20533 13.737 0.456794C13.6253 0.333118 13.5116 0.286865 13.3476 0.286865C12.6873 0.290346 12.0265 0.289489 11.3655 0.288633C11.0717 0.288252 10.7779 0.287871 10.4841 0.287871C10.2149 0.287871 9.94574 0.287823 9.67653 0.287776C8.19577 0.287514 6.71451 0.287252 5.23397 0.294909C5.11726 0.294909 4.96432 0.3482 4.88886 0.431656C3.30618 2.17015 1.72953 3.91367 0.15992 5.66423C0.071378 5.76378 0.0120146 5.92868 0.0120146 6.06341C0.00830765 7.92993 0.00738794 9.79616 0.00646822 11.6624C0.00564048 13.342 0.00481273 15.0217 0.00195312 16.7015C0.00195312 16.9207 0.0462239 17.0001 0.288708 17.0001C4.75592 16.9952 9.22246 16.9963 13.6889 16.9974C14.6819 16.9977 15.6749 16.9979 16.668 16.9981ZM14.4856 14.0028H14.8538C14.8847 13.8668 14.915 13.7333 14.9449 13.6015C14.992 13.3943 15.0381 13.1911 15.0842 12.9882C15.1529 12.6867 15.2277 12.386 15.3025 12.0855C15.4702 11.4119 15.6378 10.7386 15.7352 10.0552C15.9777 8.34688 15.527 6.78335 14.4705 5.41789C12.102 2.35818 7.54611 2.03039 4.77515 4.73818C3.1814 6.29468 2.54953 8.2031 2.953 10.4071C3.07308 11.0633 3.21993 11.7149 3.36678 12.3665C3.46972 12.8233 3.57266 13.28 3.66636 13.7383C3.71265 13.9646 3.80722 14.0068 4.01449 14.0068C6.80672 14.002 9.59894 14.0023 12.3912 14.0026C13.0893 14.0027 13.7874 14.0028 14.4856 14.0028Z" fill="#212121"/>
</svg>
