<svg width="6" height="12" viewBox="0 0 6 12" fill="none" xmlns="http://www.w3.org/2000/svg">
<path d="M2.57 10.8157V9.59705C1.86971 9.58499 1.14528 9.3678 0.722693 9.06615L1.01247 8.25774C1.44713 8.54732 2.07497 8.77657 2.75111 8.77657C3.60836 8.77657 4.1879 8.28187 4.1879 7.59411C4.1879 6.90636 3.71702 6.52025 2.82355 6.15827C1.59201 5.67564 0.831357 5.12061 0.831357 4.07087C0.831357 3.02114 1.54372 2.30925 2.65451 2.12826V0.909606H3.4031V2.08C4.12753 2.10413 4.62256 2.29718 4.9727 2.5023L4.67086 3.29865C4.4173 3.15386 3.92228 2.88841 3.14955 2.88841C2.21986 2.88841 1.86971 3.44344 1.86971 3.92608C1.86971 4.55351 2.31645 4.86722 3.36688 5.30159C4.61049 5.80836 5.23833 6.43579 5.23833 7.50965C5.23833 8.46286 4.57427 9.35574 3.33065 9.56086V10.8157H2.57Z" fill="#212121"/>
<path fill-rule="evenodd" clip-rule="evenodd" d="M2.2484 11.1373V9.9007C1.60002 9.83908 0.955354 9.62735 0.535852 9.3279L0.337891 9.1866L0.848506 7.76208L1.19077 7.9901C1.57731 8.24763 2.14384 8.45498 2.75111 8.45498C3.11943 8.45498 3.4015 8.34891 3.58532 8.19601C3.76521 8.04638 3.86631 7.84076 3.86631 7.59411C3.86631 7.33711 3.78363 7.15045 3.6142 6.98225C3.43128 6.80065 3.13895 6.63316 2.70447 6.45701C2.07867 6.21165 1.53323 5.93388 1.14293 5.55924C0.738735 5.17126 0.509762 4.68751 0.509762 4.07087C0.509762 3.46872 0.716085 2.94713 1.09383 2.55166C1.412 2.21856 1.8383 1.98863 2.33292 1.86602V0.588013H3.72469V1.77949C4.3435 1.84304 4.79643 2.02633 5.13526 2.22482L5.36974 2.36218L4.83819 3.76454L4.51138 3.57792C4.27883 3.44512 3.84142 3.21001 3.14954 3.21001C2.75049 3.21001 2.51753 3.3275 2.38575 3.45627C2.25117 3.58777 2.19131 3.76066 2.19131 3.92608C2.19131 4.14181 2.25887 4.29015 2.43533 4.44349C2.63452 4.61658 2.96382 4.78689 3.489 5.00409C4.13057 5.2656 4.65059 5.57232 5.01021 5.98031C5.37917 6.3989 5.55992 6.90195 5.55992 7.50965C5.55992 8.55392 4.8749 9.51267 3.65225 9.82214V11.1373H2.2484ZM3.33065 9.56086C4.57427 9.35574 5.23833 8.46286 5.23833 7.50965C5.23833 6.43579 4.61049 5.80836 3.36688 5.30159C2.31645 4.86722 1.86971 4.55351 1.86971 3.92608C1.86971 3.44344 2.21986 2.88841 3.14955 2.88841C3.69498 2.88841 4.10206 3.02067 4.38351 3.14939C4.5008 3.20303 4.59628 3.25606 4.67086 3.29865L4.9727 2.5023C4.62256 2.29718 4.12753 2.10413 3.4031 2.08V0.909606H2.65451V2.12826C1.54372 2.30925 0.831357 3.02114 0.831357 4.07087C0.831357 5.12061 1.59201 5.67564 2.82355 6.15827C3.71702 6.52025 4.1879 6.90636 4.1879 7.59411C4.1879 8.28187 3.60836 8.77657 2.75111 8.77657C2.21005 8.77657 1.69992 8.62977 1.29496 8.42273C1.19385 8.37104 1.0993 8.31559 1.01247 8.25774L0.722693 9.06615C1.14528 9.3678 1.86971 9.58499 2.57 9.59705V10.8157H3.33065V9.56086Z" fill="#212121"/>
</svg>
