<svg width="6" height="12" viewBox="0 0 6 12" fill="none" xmlns="http://www.w3.org/2000/svg">
<path d="M2.31902 10.8157V9.59705C1.61874 9.58499 0.894302 9.3678 0.471715 9.06615L0.761489 8.25774C1.19615 8.54732 1.82399 8.77657 2.50013 8.77657C3.35738 8.77657 3.93692 8.28187 3.93692 7.59411C3.93692 6.90636 3.46604 6.52025 2.57257 6.15827C1.34104 5.67564 0.58038 5.12061 0.58038 4.07087C0.58038 3.02114 1.29274 2.30925 2.40354 2.12826V0.909606H3.15212V2.08C3.87655 2.10413 4.37158 2.29718 4.72173 2.5023L4.41988 3.29865C4.16633 3.15386 3.6713 2.88841 2.89857 2.88841C1.96888 2.88841 1.61874 3.44344 1.61874 3.92608C1.61874 4.55351 2.06547 4.86722 3.1159 5.30159C4.35951 5.80836 4.98735 6.43579 4.98735 7.50965C4.98735 8.46286 4.32329 9.35574 3.07968 9.56086V10.8157H2.31902Z" fill="#212121"/>
<path fill-rule="evenodd" clip-rule="evenodd" d="M1.99743 11.1373V9.9007C1.34905 9.83908 0.704378 9.62735 0.284875 9.3279L0.0869141 9.1866L0.597529 7.76208L0.939795 7.9901C1.32633 8.24763 1.89286 8.45498 2.50013 8.45498C2.86846 8.45498 3.15052 8.34891 3.33434 8.19601C3.51424 8.04638 3.61533 7.84076 3.61533 7.59411C3.61533 7.33711 3.53265 7.15045 3.36323 6.98225C3.1803 6.80065 2.88797 6.63316 2.45349 6.45701C1.82769 6.21165 1.28225 5.93388 0.89195 5.55924C0.487759 5.17126 0.258787 4.68751 0.258787 4.07087C0.258787 3.46872 0.465109 2.94713 0.842857 2.55166C1.16102 2.21856 1.58733 1.98863 2.08195 1.86602V0.588013H3.47371V1.77949C4.09253 1.84304 4.54545 2.02633 4.88428 2.22482L5.11876 2.36218L4.58721 3.76454L4.26041 3.57792C4.02786 3.44512 3.59044 3.21001 2.89857 3.21001C2.49951 3.21001 2.26656 3.3275 2.13477 3.45627C2.0002 3.58777 1.94033 3.76066 1.94033 3.92608C1.94033 4.14181 2.0079 4.29015 2.18435 4.44349C2.38355 4.61659 2.71286 4.7869 3.23806 5.00411C3.87962 5.26562 4.39962 5.57233 4.75923 5.98031C5.12819 6.3989 5.30895 6.90195 5.30895 7.50965C5.30895 8.55392 4.62393 9.51267 3.40127 9.82214V11.1373H1.99743ZM3.07968 9.56086C4.32329 9.35574 4.98735 8.46286 4.98735 7.50965C4.98735 6.43579 4.35951 5.80836 3.1159 5.30159C2.06547 4.86722 1.61874 4.55351 1.61874 3.92608C1.61874 3.44344 1.96888 2.88841 2.89857 2.88841C3.444 2.88841 3.85108 3.02067 4.13254 3.14939C4.24982 3.20303 4.3453 3.25606 4.41988 3.29865L4.72173 2.5023C4.37158 2.29718 3.87655 2.10413 3.15212 2.08V0.909606H2.40354V2.12826C1.29274 2.30925 0.58038 3.02114 0.58038 4.07087C0.58038 5.12061 1.34104 5.67564 2.57257 6.15827C3.46604 6.52025 3.93692 6.90636 3.93692 7.59411C3.93692 8.28187 3.35738 8.77657 2.50013 8.77657C1.95907 8.77657 1.44894 8.62977 1.04398 8.42273C0.942875 8.37104 0.848326 8.31559 0.761489 8.25774L0.471715 9.06615C0.894302 9.3678 1.61874 9.58499 2.31902 9.59705V10.8157H3.07968V9.56086Z" fill="#212121"/>
</svg>
